<svg width="259" height="235" viewBox="0 0 259 235" fill="none" xmlns="http://www.w3.org/2000/svg">
<circle cx="140.5" cy="65.5" r="2.5" fill="#FC8888"/>
<circle cx="140" cy="65" r="2.5" stroke="black"/>
<rect x="148.5" y="88.5" width="13" height="3" rx="1.5" fill="#FAD841" stroke="black"/>
<rect x="156.5" y="84.5" width="12" height="3" rx="1.5" transform="rotate(90 156.5 84.5)" fill="#FAD841" stroke="black"/>
<path d="M56.575 56H77.5C78.3284 56 79 56.6716 79 57.5V57.5C79 58.3284 78.3284 59 77.5 59H40.65M49.1 56H28.5C27.6716 56 27 56.6716 27 57.5V57.5C27 58.3284 27.6716 59 28.5 59H35.45" stroke="black" stroke-linecap="round"/>
<path d="M73.0833 67H76.5C77.3284 67 78 66.3284 78 65.5V65.5C78 64.6716 77.3284 64 76.5 64H30.8M66.8556 67H20.5C19.6716 67 19 66.3284 19 65.5V65.5C19 64.6716 19.6716 64 20.5 64H22.6056" stroke="black" stroke-linecap="round"/>
<path d="M23.4 75H7C6.44771 75 6 74.5523 6 74V74C6 73.4477 6.44772 73 7 73H46.6M29.5222 75H63C63.5523 75 64 74.5523 64 74V74C64 73.4477 63.5523 73 63 73H54.3333" stroke="black" stroke-linecap="round"/>
<circle cx="76.0941" cy="124.46" r="2.57949" fill="white"/>
<path d="M137.786 168.316C158.871 151.877 162.543 121.336 145.988 100.102C138.684 90.7305 128.219 84.347 116.578 82.1637C114.786 81.8235 112.978 81.5826 111.16 81.4422C79.7343 76.1814 59.619 102.729 43.5464 100.639C23.9909 98.0972 7.91229 112.682 19.2931 133.517C40.3413 172.057 80.9137 176.958 94.152 177.509C96.8769 177.622 98.4437 177.551 98.4437 177.551C99.3443 177.627 100.28 177.682 101.246 177.717C112.822 178.127 128.599 175.48 137.794 168.311" fill="#FAD841"/>
<path d="M137.442 168.457C149.741 158.868 156.115 144.481 156.006 129.942M137.449 168.452C128.254 175.621 112.478 178.269 100.901 177.858M89.6376 177.378C73.4748 175.955 38.116 168.755 18.9484 133.658C7.56756 112.823 23.6462 98.2386 43.2016 100.78C50.1926 101.689 57.9484 97.1804 67.0671 92.2277M74.4963 88.3474C84.7429 83.3175 96.6263 79.2083 110.816 81.5836C112.633 81.724 114.442 81.9648 116.234 82.3051C127.874 84.4883 138.339 90.8718 145.643 100.244C150.897 106.983 154.114 114.66 155.384 122.526" stroke="black" stroke-width="5" stroke-linecap="round" stroke-linejoin="round"/>
<path d="M105.117 166.323C105.117 166.323 48.0615 170.99 17.4116 123.17C17.5459 126.981 18.663 129.482 21.6018 134.763C47.9462 181.067 102.09 176.448 102.09 176.448C114.572 177.028 128.461 174.07 137.06 167.302C141.595 163.766 144.089 160.546 147.22 155.654C147.22 155.654 118.769 167.432 105.117 166.323Z" fill="#FAAC28"/>
<path fill-rule="evenodd" clip-rule="evenodd" d="M121.221 95.7631C122.724 95.2224 123.737 93.8184 123.787 92.2063C123.821 91.1506 123.436 90.1164 122.716 89.3313C121.997 88.5462 121.002 88.0746 119.95 88.0204C118.345 87.9356 116.866 88.8307 116.203 90.2878C115.54 91.745 115.824 93.4771 116.923 94.6758C118.022 95.8746 119.718 96.3038 121.221 95.7631ZM76.5992 96.0037C76.6767 96.1369 76.763 96.2649 76.8577 96.3866L76.8466 96.3835C77.7849 97.5834 79.4432 97.9281 80.7438 97.1937C80.9033 97.1044 96.475 88.4351 108.175 91.4495C109.806 91.8722 111.444 90.8921 111.833 89.2606C112.222 87.629 111.215 85.9637 109.583 85.5411C95.5499 81.9178 78.4221 91.4496 77.7003 91.8575C77.0042 92.2498 76.497 92.9071 76.2905 93.6847C76.084 94.4622 76.195 95.2964 76.5992 96.0037Z" fill="#FEFEFE"/>
<path d="M116.741 113.843C100.748 121.868 76.9453 117.187 66.7645 113.843C64.1644 112.989 56.6738 137.715 63.8425 144.129C76.0947 155.092 117.349 151.886 121.236 141.227C124.345 132.7 117.689 113.367 116.741 113.843Z" fill="#F7EACB" stroke="#65460A" stroke-width="4"/>
<ellipse cx="67.7743" cy="135.637" rx="0.887301" ry="1.96982" transform="rotate(29.3882 67.7743 135.637)" fill="#FC8888"/>
<ellipse cx="71.6063" cy="135.602" rx="0.887301" ry="1.96982" transform="rotate(29.3882 71.6063 135.602)" fill="#FC8888"/>
<ellipse cx="75.5282" cy="135.602" rx="0.887301" ry="1.96982" transform="rotate(29.3882 75.5282 135.602)" fill="#FC8888"/>
<ellipse cx="104.285" cy="136.909" rx="0.887301" ry="1.96982" transform="rotate(29.3882 104.285 136.909)" fill="#FC8888"/>
<ellipse cx="108.207" cy="136.909" rx="0.887301" ry="1.96982" transform="rotate(29.3882 108.207 136.909)" fill="#FC8888"/>
<ellipse cx="112.129" cy="136.909" rx="0.887301" ry="1.96982" transform="rotate(29.3882 112.129 136.909)" fill="#FC8888"/>
<ellipse cx="86.6289" cy="139.694" rx="2.57949" ry="4.5141" transform="rotate(-165 86.6289 139.694)" fill="#FC8888" stroke="#5A3A07" stroke-width="2" stroke-linecap="round" stroke-linejoin="round"/>
<circle cx="75.5116" cy="126.278" r="4.57509" fill="#5A3A07"/>
<circle cx="106.882" cy="127.585" r="4.57509" fill="#5A3A07"/>
<circle cx="108.016" cy="126.073" r="2.25705" fill="white"/>
<circle cx="76.0951" cy="124.461" r="2.57949" fill="white"/>
<circle cx="75.7723" cy="128.652" r="1.61218" fill="white"/>
<circle cx="72.8708" cy="127.04" r="1.28974" fill="white"/>
<circle cx="104.468" cy="127.685" r="1.28974" fill="white"/>
<circle cx="108.016" cy="129.942" r="1.61218" fill="white"/>
<path d="M266.79 105.911C263.998 79.8568 241.212 59.65 215.896 60.7792C204.724 61.2747 194.392 65.9736 186.862 73.9837C185.699 75.2145 184.608 76.5148 183.594 77.8787C163.775 99.8625 175.192 130.869 165.539 142.453C153.796 156.547 157.575 177.575 180.005 180.331C221.492 185.43 245.557 155.978 252.564 145.775C254.006 143.674 254.725 142.39 254.725 142.39C255.233 141.717 255.742 141.005 256.248 140.258C262.318 131.295 268.007 117.264 266.789 105.902" fill="#FAD841"/>
<path d="M266.733 106.265C265.104 91.0674 256.673 77.8592 244.904 69.7147M266.732 106.256C267.949 117.619 262.261 131.649 256.19 140.612M250.219 149.286C241.06 161.319 217.728 185.329 179.947 180.685C157.518 177.929 153.738 156.901 165.482 142.807C169.68 137.769 169.892 129.055 170.423 119.008M170.98 110.911C172.007 99.9241 174.588 88.1587 183.537 78.2327C184.551 76.8688 185.642 75.5685 186.804 74.3377C194.334 66.3276 204.666 61.6287 215.838 61.1332C223.873 60.7748 231.653 62.5656 238.62 66.0105" stroke="black" stroke-width="5" stroke-linecap="round" stroke-linejoin="round"/>
<path d="M248.988 130.732C248.988 130.732 224.46 178.694 170.736 175.967C173.873 178.018 176.442 178.547 182.154 179.202C232.522 184.49 255.645 138.869 255.645 138.869C262.301 129.283 266.803 116.576 265.613 105.914C265.013 100.31 263.655 96.5062 261.266 91.2494C261.266 91.2494 256.65 120.517 248.988 130.732Z" fill="#FAAC28"/>
<path fill-rule="evenodd" clip-rule="evenodd" d="M200.121 77.9946C200.43 76.4948 199.801 74.8955 198.527 73.943C197.693 73.3182 196.669 73.0386 195.68 73.1657C194.691 73.2928 193.817 73.8162 193.252 74.6206C192.388 75.8479 192.376 77.5296 193.221 78.881C194.067 80.2324 195.603 80.9872 197.114 80.7932C198.624 80.5991 199.811 79.4944 200.121 77.9946ZM178.191 113.573C178.337 113.587 178.483 113.591 178.628 113.585L178.62 113.592C180.052 113.526 181.152 112.404 181.205 110.955C181.212 110.777 181.947 93.5009 190.177 85.9142C191.326 84.8576 191.348 83.0018 190.227 81.7691C189.105 80.5365 187.264 80.3938 186.114 81.4505C176.238 90.5461 175.426 109.547 175.396 110.351C175.367 111.126 175.645 111.901 176.17 112.505C176.694 113.11 177.421 113.494 178.191 113.573Z" fill="#FEFEFE"/>
<path d="M235.174 94.7805C221.898 106.778 197.708 108.608 187.005 108.098C184.271 107.968 183.64 133.796 192.259 138.068C206.989 145.37 245.897 131.286 246.803 119.977C247.528 110.93 235.961 94.0696 235.174 94.7805Z" fill="#F7EACB" stroke="#65460A" stroke-width="4"/>
<path d="M223.111 119.137L208.622 123.143C208.241 123.279 208.796 123.773 208.796 123.773C209.206 124.35 211.21 130.487 217.762 128.676C223.667 127.043 223.982 122.287 223.111 119.137Z" fill="#FC8888" stroke="#5A3A07" stroke-width="2" stroke-linecap="round" stroke-linejoin="round"/>
<ellipse cx="193.784" cy="128.835" rx="0.887301" ry="1.96982" transform="rotate(13.9334 193.784 128.835)" fill="#FC8888"/>
<ellipse cx="197.469" cy="127.781" rx="0.887301" ry="1.96982" transform="rotate(13.9334 197.469 127.781)" fill="#FC8888"/>
<ellipse cx="201.248" cy="126.736" rx="0.887301" ry="1.96982" transform="rotate(13.9334 201.248 126.736)" fill="#FC8888"/>
<ellipse cx="229.315" cy="120.333" rx="0.887301" ry="1.96982" transform="rotate(13.9334 229.315 120.333)" fill="#FC8888"/>
<ellipse cx="233.093" cy="119.288" rx="0.887301" ry="1.96982" transform="rotate(13.9334 233.093 119.288)" fill="#FC8888"/>
<ellipse cx="236.873" cy="118.242" rx="0.887301" ry="1.96982" transform="rotate(13.9334 236.873 118.242)" fill="#FC8888"/>
<circle cx="196.687" cy="118.692" r="4.57509" transform="rotate(-17.367 196.687 118.692)" fill="#5A3A07"/>
<ellipse cx="192.517" cy="115.06" rx="0.47467" ry="1.61218" transform="rotate(-49.1836 192.517 115.06)" fill="#5A3A07"/>
<ellipse cx="194.673" cy="113.706" rx="0.47467" ry="1.61218" transform="rotate(-17.9572 194.673 113.706)" fill="#5A3A07"/>
<ellipse cx="197.26" cy="113.63" rx="0.47467" ry="1.61218" transform="rotate(4.85573 197.26 113.63)" fill="#5A3A07"/>
<circle cx="227.017" cy="110.575" r="4.57509" transform="rotate(-17.367 227.017 110.575)" fill="#5A3A07"/>
<ellipse cx="223.058" cy="106.859" rx="0.47467" ry="1.61218" transform="rotate(-49.1836 223.058 106.859)" fill="#5A3A07"/>
<ellipse cx="225.215" cy="105.505" rx="0.47467" ry="1.61218" transform="rotate(-17.9572 225.215 105.505)" fill="#5A3A07"/>
<ellipse cx="227.802" cy="105.43" rx="0.47467" ry="1.61218" transform="rotate(4.85573 227.802 105.43)" fill="#5A3A07"/>
<path d="M245.235 61.6736C231.702 76.4017 238.88 86.0094 238.88 86.0094C238.88 86.0094 250.072 80.5753 245.288 61.6881C245.235 61.6736 245.235 61.6736 245.235 61.6736Z" fill="#3BB777" stroke="black" stroke-width="5" stroke-linejoin="round"/>
<path d="M244.667 63.7439L239.398 84.243C239.398 84.243 248.349 80.1951 244.762 64.0284" fill="#229857"/>
</svg>
