<svg width="30" height="22" viewBox="0 0 30 22" fill="none" xmlns="http://www.w3.org/2000/svg">
<path d="M6.36004 2.21031C6.60034 0.928711 7.71937 0 9.02331 0H12.5418C14.2384 0 15.5177 1.54147 15.205 3.20904L12.1567 19.4671C11.9164 20.7487 10.7973 21.6774 9.49339 21.6774H5.97492C4.27829 21.6774 2.99899 20.136 3.31166 18.4684L6.36004 2.21031Z" fill="#5D2987"/>
<path d="M14.2309 12.9786C15.3008 14.233 17.2336 14.2492 18.3244 13.0129L25.8335 4.5026C27.3773 2.75297 26.135 0.000142097 23.8017 0.000142097H9.03377C6.72184 0.000142097 5.47184 2.70926 6.97216 4.46825L14.2309 12.9786Z" fill="#FF3C88"/>
<path d="M11.9977 8.51886C13.0724 7.34016 14.9276 7.34016 16.0023 8.51886L23.8648 17.1423C25.451 18.882 24.2168 21.6776 21.8625 21.6776H6.13749C3.78322 21.6776 2.54896 18.882 4.13516 17.1423L11.9977 8.51886Z" fill="#5DAFFD" style="mix-blend-mode:multiply"/>
</svg>
