<svg width="40" height="40" viewBox="0 0 40 40" fill="none" xmlns="http://www.w3.org/2000/svg">
<circle cx="20" cy="20" r="20" fill="#FFE6BD"/>
<path d="M27.1837 19.9439C27.1837 16.2443 24.1634 13.2451 20.4377 13.2451C18.7936 13.2447 17.2066 13.8436 15.9779 14.9281C15.7883 15.0947 15.6081 15.2716 15.4382 15.458C12.1903 18.4397 13.3758 22.8935 11.7803 24.4696C9.83908 26.3874 10.0626 29.3828 13.3046 29.9136C20.5353 31.098 24.8441 25.0229 24.8441 25.0229C25.9473 23.8298 27.1837 21.6905 27.1837 19.9426" fill="#FAD841"/>
<path d="M27.1837 19.9439C27.1837 16.2443 24.1634 13.2451 20.4377 13.2451C18.7936 13.2447 17.2066 13.8436 15.9779 14.9281C15.7883 15.0947 15.6081 15.2716 15.4382 15.458C12.1903 18.4397 13.3758 22.8935 11.7803 24.4696C9.83908 26.3874 10.0626 29.3828 13.3046 29.9136C20.5353 31.098 24.8441 25.0229 24.8441 25.0229C25.9473 23.8298 27.1837 21.6905 27.1837 19.9426" stroke="black"/>
<path d="M23.5762 23.6968C23.5762 23.6968 19.9554 29.1492 12.4561 28.4899C12.8655 28.7719 12.7582 28.9357 13.55 29.0528C20.5398 30.0225 24.3882 24.7823 24.3882 24.7823C25.4665 23.5867 26.2898 22.0935 26.2831 20.7144C26.2831 19.9898 26.2449 19.0604 25.9886 18.3701C25.9886 18.3701 24.8052 22.4261 23.5762 23.6968Z" fill="#FAAC28"/>
<path d="M23.4126 14.1498C23.1753 14.1495 22.9628 14.0053 22.8788 13.7873C22.7948 13.5694 22.8568 13.3232 23.0345 13.1687C24.8602 11.5871 25.1365 8.53677 25.1387 8.5065C25.1689 8.20183 25.4424 7.97722 25.7532 8.00185C26.064 8.02647 26.2973 8.29122 26.2773 8.59669C26.2654 8.73956 25.9657 12.1251 23.7901 14.0095C23.686 14.1 23.5517 14.1498 23.4126 14.1495" fill="black"/>
<path d="M33.332 13.6071C28.0881 8.64588 25.916 13.775 25.916 13.775C25.916 13.775 28.3345 18.8457 33.332 13.6368C33.332 13.6071 33.332 13.6071 33.332 13.6071Z" fill="#3BB777" stroke="black" stroke-linejoin="round"/>
<path d="M32.2316 13.6533H26.9561C26.9561 13.6533 28.4634 17.4216 32.1695 13.7222" fill="#229857"/>
<path fill-rule="evenodd" clip-rule="evenodd" d="M18.4773 15.948C18.5462 15.738 18.4791 15.5081 18.3075 15.3654C18.1952 15.2719 18.0495 15.2259 17.9027 15.2376C17.7558 15.2494 17.6196 15.3178 17.5243 15.4279C17.3784 15.5959 17.3502 15.8335 17.4528 16.0298C17.5555 16.2261 17.7687 16.3425 17.993 16.3246C18.2173 16.3067 18.4084 16.158 18.4773 15.948ZM14.707 20.837C14.7282 20.8399 14.7495 20.8414 14.7708 20.8414L14.7695 20.8424C14.9803 20.8421 15.159 20.6904 15.1895 20.486C15.1934 20.461 15.5722 18.0242 16.8966 17.0039C17.0815 16.8618 17.1139 16.5997 16.969 16.4184C16.824 16.2372 16.5566 16.2054 16.3717 16.3475C14.7823 17.5706 14.3652 20.2506 14.3483 20.3641C14.3319 20.4735 14.3604 20.5847 14.4277 20.6734C14.495 20.7621 14.5955 20.821 14.707 20.837Z" fill="#FEFEFE"/>
</svg>
