<svg width="45" height="45" viewBox="0 0 45 45" fill="none" xmlns="http://www.w3.org/2000/svg">
<circle cx="22.5" cy="22.5" r="22.5" fill="white"/>
<path d="M14.7549 14.2453C14.7549 15.1967 14.9423 16.1389 15.3064 17.0179C15.6705 17.897 16.2042 18.6957 16.877 19.3685C17.5498 20.0413 18.3485 20.5749 19.2275 20.9391C20.1066 21.3032 21.0487 21.4906 22.0002 21.4906C22.9516 21.4906 23.8938 21.3032 24.7728 20.9391C25.6519 20.5749 26.4506 20.0413 27.1234 19.3685C27.7961 18.6957 28.3298 17.897 28.6939 17.0179C29.058 16.1389 29.2455 15.1967 29.2455 14.2453C29.2455 13.2938 29.058 12.3517 28.6939 11.4726C28.3298 10.5936 27.7961 9.79488 27.1234 9.12209C26.4506 8.44931 25.6519 7.91562 24.7728 7.55151C23.8938 7.1874 22.9516 7 22.0002 7C21.0487 7 20.1066 7.1874 19.2275 7.55151C18.3485 7.91562 17.5498 8.44931 16.877 9.12209C16.2042 9.79488 15.6705 10.5936 15.3064 11.4726C14.9423 12.3517 14.7549 13.2938 14.7549 14.2453Z" fill="#88BDF3"/>
<path d="M14.7549 31.7546C14.7549 32.706 14.9423 33.6482 15.3064 34.5272C15.6705 35.4062 16.2042 36.205 16.877 36.8777C17.5498 37.5505 18.3485 38.0842 19.2275 38.4483C20.1066 38.8124 21.0487 38.9998 22.0002 38.9998C22.9516 38.9998 23.8938 38.8124 24.7728 38.4483C25.6519 38.0842 26.4506 37.5505 27.1234 36.8777C27.7961 36.205 28.3298 35.4062 28.6939 34.5272C29.058 33.6482 29.2455 32.706 29.2455 31.7546C29.2455 30.8031 29.058 29.8609 28.6939 28.9819C28.3298 28.1029 27.7961 27.3042 27.1234 26.6314C26.4506 25.9586 25.6519 25.4249 24.7728 25.0608C23.8938 24.6967 22.9516 24.5093 22.0002 24.5093C21.0487 24.5093 20.1066 24.6967 19.2275 25.0608C18.3485 25.4249 17.5498 25.9586 16.877 26.6314C16.2042 27.3042 15.6705 28.1029 15.3064 28.9819C14.9423 29.8609 14.7549 30.8031 14.7549 31.7546Z" fill="#3075EE"/>
<path d="M23.5098 23.0002C23.5097 23.9517 23.6971 24.8939 24.0611 25.773C24.4252 26.652 24.9589 27.4508 25.6317 28.1237C26.3045 28.7965 27.1032 29.3302 27.9823 29.6944C28.8614 30.0585 29.8035 30.2459 30.755 30.2459C31.7066 30.2459 32.6487 30.0585 33.5278 29.6944C34.4069 29.3302 35.2056 28.7965 35.8784 28.1237C36.5512 27.4508 37.0849 26.652 37.449 25.773C37.813 24.8939 38.0004 23.9517 38.0003 23.0002C38.0004 22.0487 37.813 21.1065 37.449 20.2274C37.0849 19.3483 36.5512 18.5495 35.8784 17.8767C35.2056 17.2038 34.4069 16.6701 33.5278 16.306C32.6487 15.9418 31.7066 15.7544 30.755 15.7544C29.8035 15.7544 28.8614 15.9418 27.9823 16.306C27.1032 16.6701 26.3045 17.2038 25.6317 17.8767C24.9589 18.5495 24.4252 19.3483 24.0611 20.2274C23.6971 21.1065 23.5097 22.0487 23.5098 23.0002Z" fill="#5795F1"/>
<path d="M6 23.0002C5.99994 23.9517 6.1873 24.8939 6.55138 25.773C6.91546 26.652 7.44913 27.4508 8.12193 28.1237C8.79472 28.7965 9.59345 29.3302 10.4725 29.6944C11.3516 30.0585 12.2938 30.2459 13.2453 30.2459C14.1968 30.2459 15.139 30.0585 16.018 29.6944C16.8971 29.3302 17.6958 28.7965 18.3686 28.1237C19.0414 27.4508 19.5751 26.652 19.9392 25.773C20.3033 24.8939 20.4906 23.9517 20.4906 23.0002C20.4906 22.0487 20.3033 21.1065 19.9392 20.2274C19.5751 19.3483 19.0414 18.5495 18.3686 17.8767C17.6958 17.2038 16.8971 16.6701 16.018 16.306C15.139 15.9418 14.1968 15.7544 13.2453 15.7544C12.2938 15.7544 11.3516 15.9418 10.4725 16.306C9.59345 16.6701 8.79472 17.2038 8.12193 17.8767C7.44913 18.5495 6.91546 19.3483 6.55138 20.2274C6.1873 21.1065 5.99994 22.0487 6 23.0002Z" fill="#205FEC"/>
<path d="M20.2941 21.2946C19.0027 20.9806 17.8226 20.3174 16.8828 19.3776C15.943 18.4379 15.2798 17.2577 14.9658 15.9663C16.2549 16.2851 17.4325 16.9499 18.3716 17.8889C19.3106 18.8279 19.9753 20.0055 20.2941 21.2946Z" fill="#134BEF"/>
<path d="M14.9512 30.049C15.2652 28.7576 15.9284 27.5774 16.8681 26.6377C17.8079 25.6979 18.9881 25.0347 20.2795 24.7207C19.9607 26.0098 19.2959 27.1874 18.3569 28.1264C17.4179 29.0654 16.2403 29.7302 14.9512 30.049Z" fill="#0932E8"/>
<path d="M23.7061 24.7061C24.9975 25.0201 26.1776 25.6832 27.1174 26.623C28.0572 27.5628 28.7203 28.7429 29.0344 30.0344C27.7452 29.7156 26.5676 29.0508 25.6286 28.1118C24.6896 27.1728 24.0248 25.9952 23.7061 24.7061Z" fill="#164BEA"/>
<path d="M29.049 15.9512C28.735 17.2426 28.0718 18.4227 27.132 19.3625C26.1923 20.3023 25.0121 20.9655 23.7207 21.2795C24.0395 19.9904 24.7043 18.8127 25.6433 17.8737C26.5823 16.9347 27.7599 16.27 29.049 15.9512Z" fill="#3170F1"/>
</svg>
