<svg width="18" height="16" viewBox="0 0 18 16" fill="none" xmlns="http://www.w3.org/2000/svg">
<path d="M12.7847 8.19143C12.7847 5.65441 10.7135 3.59766 8.1585 3.59766C7.03103 3.59739 5.94271 4.0081 5.10014 4.75182C4.97012 4.86607 4.84656 4.98737 4.73003 5.11516C2.50274 7.15995 3.31572 10.2142 2.22156 11.295C0.890348 12.6101 1.04364 14.6643 3.26685 15.0283C8.22545 15.8405 11.1803 11.6744 11.1803 11.6744C11.9368 10.8563 12.7847 9.38919 12.7847 8.19057" fill="#FAD841"/>
<path d="M12.7847 8.19143C12.7847 5.65441 10.7135 3.59766 8.1585 3.59766C7.03103 3.59739 5.94271 4.0081 5.10014 4.75182C4.97012 4.86607 4.84656 4.98737 4.73003 5.11516C2.50274 7.15995 3.31572 10.2142 2.22156 11.295C0.890348 12.6101 1.04364 14.6643 3.26685 15.0283C8.22545 15.8405 11.1803 11.6744 11.1803 11.6744C11.9368 10.8563 12.7847 9.38919 12.7847 8.19057" stroke="black"/>
<path d="M10.3104 10.7647C10.3104 10.7647 7.82738 14.5037 2.68457 14.0516C2.96537 14.245 2.89176 14.3573 3.43476 14.4377C8.22811 15.1026 10.8672 11.509 10.8672 11.509C11.6067 10.6892 12.1713 9.66517 12.1667 8.71947C12.1667 8.22256 12.1405 7.58516 11.9647 7.11182C11.9647 7.11182 11.1532 9.89326 10.3104 10.7647Z" fill="#FAAC28"/>
<path d="M10.1981 4.21734C10.0353 4.21714 9.88961 4.11819 9.83202 3.96874C9.77442 3.81928 9.81691 3.65044 9.93879 3.54451C11.1908 2.4599 11.3803 0.3681 11.3818 0.347338C11.4025 0.138411 11.59 -0.0156196 11.8032 0.00126542C12.0163 0.0181504 12.1763 0.199711 12.1626 0.409192C12.1544 0.507164 11.9489 2.82886 10.457 4.1211C10.3856 4.18317 10.2934 4.21734 10.1981 4.21713" fill="black"/>
<path d="M16.9997 3.84513C13.4036 0.442883 11.9141 3.96027 11.9141 3.96027C11.9141 3.96027 13.5725 7.43756 16.9997 3.86546C16.9997 3.84513 16.9997 3.84513 16.9997 3.84513Z" fill="#3BB777" stroke="black" stroke-linejoin="round"/>
<path d="M16.2457 3.87646H12.6279C12.6279 3.87646 13.6616 6.46062 16.2031 3.92371" fill="#229857"/>
<path fill-rule="evenodd" clip-rule="evenodd" d="M6.81218 5.44934C6.8594 5.30533 6.81343 5.14762 6.69572 5.0498C6.6187 4.98565 6.51884 4.95413 6.41811 4.96217C6.31737 4.97021 6.22403 5.01716 6.15862 5.09267C6.0586 5.20787 6.03927 5.3708 6.10964 5.50542C6.18001 5.64004 6.32622 5.71983 6.48003 5.70755C6.63385 5.69527 6.76495 5.59335 6.81218 5.44934ZM4.2257 8.80213C4.24019 8.80411 4.2548 8.80511 4.26944 8.80513L4.26856 8.80578C4.41309 8.80557 4.53565 8.70159 4.55658 8.56141C4.5592 8.54426 4.819 6.87315 5.72722 6.1735C5.85404 6.07607 5.87626 5.89631 5.77686 5.77201C5.67746 5.64771 5.49407 5.62592 5.36726 5.72335C4.27731 6.56212 3.99126 8.4 3.97967 8.47781C3.96841 8.5528 3.988 8.6291 4.03414 8.68993C4.08029 8.75075 4.14919 8.79111 4.2257 8.80213Z" fill="#FEFEFE"/>
</svg>
