<svg width="64" height="64" viewBox="0 0 128 128" fill="none" xmlns="http://www.w3.org/2000/svg">
<path d="M93.5548 106.635C94.7485 108.653 94.076 111.343 91.9913 112.477C89.9402 113.671 87.3429 112.965 86.1829 110.914C84.9304 108.896 85.6618 106.265 87.6792 105.072C89.7975 103.887 92.3612 104.618 93.5548 106.635ZM68.3204 115.756C68.3204 118.084 66.3955 120.034 63.9747 120.034C61.6462 120.034 59.6961 118.134 59.6961 115.756V112.755C59.6961 110.368 61.6546 108.468 63.9747 108.468C66.3618 108.468 68.3204 110.367 68.3204 112.755V115.756ZM41.8924 110.922C40.6735 113.032 38.0426 113.705 36.0167 112.511C33.9406 111.342 33.2007 108.72 34.4282 106.635L37.6138 101.062C38.8412 99.0111 41.4722 98.305 43.5485 99.4735C45.566 100.667 46.3055 103.332 45.0784 105.349L41.8924 110.922ZM21.3905 93.6062C19.3143 94.7663 16.6498 94.0685 15.5149 92.0175C14.296 90.0001 14.9937 87.3355 17.0447 86.142L25.6103 81.1825C27.6614 80.0477 30.3177 80.6866 31.486 82.7711C32.6459 84.7885 31.9399 87.4532 29.8973 88.6468L21.3905 93.6062ZM12.2786 68.3045C9.89133 68.3045 8 66.3795 8 64.0259C8 61.6388 9.89133 59.7138 12.2786 59.7138H25.6186C28.0059 59.7138 29.8972 61.6388 29.8972 63.9924C29.8972 66.3795 28.0059 68.3045 25.6186 68.3045H12.2786ZM17.0531 41.8429C14.9685 40.6829 14.296 38.0517 15.5232 36.0009C16.6581 33.9246 19.3142 33.2184 21.3989 34.412L35.8905 42.8263C37.9416 43.9948 38.614 46.6173 37.4791 48.6432C36.2603 50.7195 33.6293 51.392 31.6119 50.2318L17.0531 41.8429ZM34.428 21.3493L44.5235 38.8756C45.7507 40.9267 48.3818 41.6578 50.4244 40.4391C52.4754 39.2791 53.1479 36.6143 51.9543 34.5634L41.8253 17.0708C40.6652 15.0451 38.034 14.3138 36.0167 15.5074C33.9321 16.7008 33.2597 19.3318 34.428 21.3493ZM59.6961 12.2962C59.6961 9.96769 61.6546 7.98389 63.9747 7.98389C66.3618 7.98389 68.3204 9.9173 68.3204 12.2962V32.4871C68.3204 34.8743 66.3955 36.7994 63.9747 36.8328C61.6462 36.8328 59.6961 34.9415 59.6961 32.4871V12.2962ZM86.1242 17.0707C87.3514 14.9946 89.9489 14.3137 91.9998 15.482C94.076 16.6421 94.8158 19.2733 93.5884 21.3577L83.4677 38.884C82.3245 40.9267 79.6346 41.658 77.5921 40.4727C75.541 39.2791 74.8686 36.6143 76.0285 34.5634L86.1242 17.0707ZM106.685 34.412L89.125 44.5328C87.0739 45.6927 86.3679 48.3238 87.5363 50.4084C88.7552 52.4258 91.3863 53.0983 93.412 51.972L110.972 41.8512C112.989 40.6912 113.729 38.0603 112.502 36.0092C111.333 33.9244 108.694 33.1848 106.685 34.412ZM115.704 59.7137C118.117 59.7137 120.017 61.6386 119.983 64.0258C119.983 66.3794 118.117 68.3043 115.704 68.3043H95.4882C93.1598 68.3043 91.2012 66.3794 91.2012 63.9922C91.2012 61.6386 93.1598 59.7137 95.4882 59.7137H115.704Z" fill="#C2C2C2"/>
</svg>
