<svg width="760" height="407" viewBox="0 0 760 407" fill="none" xmlns="http://www.w3.org/2000/svg">
<g opacity="0.4">
<path d="M619.496 271.88C619.496 260.148 609.917 250.636 598.101 250.636C592.887 250.634 587.854 252.534 583.957 255.973C583.356 256.502 582.785 257.063 582.246 257.654C571.945 267.11 575.705 281.235 570.645 286.234C564.488 292.316 565.197 301.816 575.479 303.499C598.411 307.255 612.076 287.988 612.076 287.988C615.575 284.204 619.496 277.42 619.496 271.877" fill="#FAD841"/>
<path d="M619.496 271.88C619.496 260.148 609.917 250.636 598.101 250.636C592.887 250.634 587.854 252.534 583.957 255.973C583.356 256.502 582.785 257.063 582.246 257.654C571.945 267.11 575.705 281.235 570.645 286.234C564.488 292.316 565.197 301.816 575.479 303.499C598.411 307.255 612.076 287.988 612.076 287.988C615.575 284.204 619.496 277.42 619.496 271.877" stroke="black" stroke-width="5"/>
<path d="M608.499 282.558C608.499 282.558 595.691 301.994 571.641 299.797C572.954 300.737 573.808 301.143 576.348 301.533C598.763 304.765 611.103 286.175 611.103 286.175C614.561 282.191 617.2 276.827 617.179 272.232C617.179 269.817 616.751 268.159 615.929 265.859C615.929 265.859 612.44 278.323 608.499 282.558Z" fill="#FAAC28"/>
<path d="M607.54 253.504C606.787 253.503 606.113 253.045 605.847 252.354C605.58 251.663 605.777 250.882 606.341 250.392C612.131 245.376 613.007 235.702 613.014 235.606C613.11 234.64 613.977 233.928 614.963 234.006C615.949 234.084 616.688 234.924 616.625 235.892C616.587 236.345 615.637 247.083 608.737 253.059C608.407 253.346 607.981 253.504 607.54 253.503" fill="black"/>
<path d="M639 251.783C622.369 236.049 615.48 252.315 615.48 252.315C615.48 252.315 623.15 268.397 639 251.877C639 251.783 639 251.783 639 251.783Z" fill="#3BB777" stroke="black" stroke-width="5" stroke-linejoin="round"/>
<path d="M635.205 251.628L618.128 252.161C618.128 252.161 623.189 263.95 635.004 251.889" fill="#229857"/>
<path fill-rule="evenodd" clip-rule="evenodd" d="M591.877 259.205C592.095 258.539 591.882 257.809 591.338 257.357C590.982 257.06 590.52 256.914 590.054 256.952C589.588 256.989 589.157 257.206 588.854 257.555C588.392 258.088 588.302 258.841 588.628 259.464C588.953 260.086 589.629 260.455 590.341 260.399C591.052 260.342 591.658 259.871 591.877 259.205ZM579.92 274.712C579.987 274.721 580.054 274.726 580.122 274.726L580.118 274.729C580.786 274.728 581.353 274.247 581.45 273.599C581.462 273.519 582.664 265.791 586.864 262.555C587.45 262.105 587.553 261.273 587.093 260.698C586.634 260.124 585.786 260.023 585.199 260.473C580.158 264.352 578.836 272.852 578.782 273.212C578.73 273.559 578.82 273.912 579.034 274.193C579.247 274.474 579.566 274.661 579.92 274.712Z" fill="#FEFEFE"/>
</g>
<g opacity="0.2">
<path d="M164.509 367.977C163.843 355.628 153.221 346.161 140.785 346.832C135.297 347.126 130.107 349.411 126.201 353.253C125.598 353.843 125.028 354.466 124.495 355.118C114.19 365.656 118.949 380.31 113.907 385.858C107.773 392.609 109.058 402.568 119.976 403.756C144.325 406.407 157.614 385.352 157.614 385.352C161.082 381.171 164.824 373.808 164.509 367.973" fill="#FAD841"/>
<path d="M164.509 367.977C163.843 355.628 153.221 346.161 140.785 346.832C135.297 347.126 130.107 349.411 126.201 353.253C125.598 353.843 125.028 354.466 124.495 355.118C114.19 365.656 118.949 380.31 113.907 385.858C107.773 392.609 109.058 402.568 119.976 403.756C144.325 406.407 157.614 385.352 157.614 385.352C161.082 381.171 164.824 373.808 164.509 367.973" stroke="black" stroke-width="5"/>
<path d="M153.541 379.84C153.541 379.84 141.164 401.025 115.726 400.078C117.162 400.992 118.084 401.371 120.779 401.638C144.555 403.766 156.487 383.499 156.487 383.499C159.901 379.11 162.374 373.315 162.091 368.479C161.953 365.937 161.409 364.217 160.414 361.843C160.414 361.843 157.449 375.159 153.541 379.84Z" fill="#FAAC28"/>
<path d="M150.881 349.315C150.089 349.356 149.353 348.913 149.034 348.201C148.714 347.488 148.877 346.655 149.442 346.108C155.252 340.499 155.625 330.268 155.627 330.166C155.672 329.144 156.545 328.345 157.587 328.371C158.629 328.397 159.455 329.239 159.443 330.262C159.429 330.741 159.038 342.096 152.116 348.778C151.785 349.099 151.345 349.29 150.881 349.314" fill="black"/>
<path d="M183.896 345.717C165.498 330.101 159.172 347.613 159.172 347.613C159.172 347.613 168.157 364.104 183.901 345.816C183.896 345.717 183.896 345.717 183.896 345.717Z" fill="#3BB777" stroke="black" stroke-width="5" stroke-linejoin="round"/>
<path d="M179.894 345.77L161.95 347.3C161.95 347.3 167.946 359.421 179.697 346.055" fill="#229857"/>
<path fill-rule="evenodd" clip-rule="evenodd" d="M134.719 356.204C134.911 355.49 134.646 354.735 134.047 354.29C133.656 353.998 133.161 353.87 132.673 353.936C132.185 354.002 131.743 354.255 131.444 354.639C130.988 355.226 130.936 356.024 131.314 356.661C131.692 357.298 132.425 357.648 133.17 357.548C133.916 357.448 134.527 356.917 134.719 356.204ZM123.014 373.205C123.085 373.211 123.157 373.212 123.228 373.208L123.224 373.211C123.927 373.172 124.497 372.634 124.562 371.946C124.57 371.862 125.396 363.659 129.633 360.015C130.225 359.508 130.286 358.627 129.769 358.048C129.253 357.469 128.354 357.411 127.763 357.919C122.677 362.288 121.768 371.309 121.732 371.691C121.697 372.059 121.812 372.425 122.053 372.709C122.293 372.993 122.639 373.171 123.014 373.205Z" fill="#FEFEFE"/>
</g>
<rect x="122.5" y="307.5" width="11" height="3" rx="1.5" fill="#FAD841" stroke="black"/>
<rect x="129.5" y="303.5" width="11" height="3" rx="1.5" transform="rotate(90 129.5 303.5)" fill="#FAD841" stroke="black"/>
<path d="M715.441 98.3467C715.441 85.9796 705.345 75.9536 692.89 75.9536C687.394 75.9523 682.089 77.9544 677.982 81.5798C677.348 82.1367 676.746 82.728 676.178 83.351C665.32 93.3186 669.283 108.207 663.95 113.476C657.46 119.887 658.208 129.9 669.045 131.674C693.217 135.633 707.62 115.325 707.62 115.325C711.308 111.337 715.441 104.185 715.441 98.3425" fill="#FAD841"/>
<path d="M715.441 98.3467C715.441 85.9796 705.345 75.9536 692.89 75.9536C687.394 75.9523 682.089 77.9544 677.982 81.5798C677.348 82.1367 676.746 82.728 676.178 83.351C665.32 93.3186 669.283 108.207 663.95 113.476C657.46 119.887 658.208 129.9 669.045 131.674C693.217 135.633 707.62 115.325 707.62 115.325C711.308 111.337 715.441 104.185 715.441 98.3425" stroke="black" stroke-width="5"/>
<path d="M703.851 109.601C703.851 109.601 690.35 130.089 665 127.773C666.385 128.763 667.285 129.191 669.961 129.602C693.588 133.008 706.595 113.414 706.595 113.414C710.24 109.214 713.022 103.561 713 98.7169C713 96.1717 712.549 94.4246 711.683 92C711.683 92 708.005 105.138 703.851 109.601Z" fill="#FAAC28"/>
<path d="M702.839 78.9768C702.045 78.9759 701.335 78.4935 701.054 77.765C700.774 77.0364 700.981 76.2134 701.575 75.697C707.678 70.4099 708.602 60.2131 708.609 60.1119C708.71 59.0934 709.624 58.3426 710.663 58.4249C711.702 58.5072 712.482 59.3922 712.415 60.4134C712.375 60.891 711.373 72.2085 704.101 78.5077C703.753 78.8103 703.304 78.9768 702.839 78.9758" fill="black"/>
<path d="M736 77.1628C718.47 60.578 711.209 77.7241 711.209 77.7241C711.209 77.7241 719.294 94.6748 736 77.262C736 77.1628 736 77.1628 736 77.1628Z" fill="#3BB777" stroke="black" stroke-width="5" stroke-linejoin="round"/>
<path d="M732 77L714 77.5614C714 77.5614 719.334 89.9875 731.788 77.2743" fill="#229857"/>
<path fill-rule="evenodd" clip-rule="evenodd" d="M686.33 84.9855C686.56 84.2836 686.336 83.5148 685.762 83.0379C685.387 82.7252 684.9 82.5716 684.409 82.6107C683.918 82.6499 683.463 82.8788 683.144 83.2469C682.656 83.8085 682.562 84.6027 682.905 85.2589C683.248 85.9151 683.961 86.3041 684.711 86.2442C685.46 86.1844 686.099 85.6875 686.33 84.9855ZM673.726 101.331C673.797 101.341 673.868 101.346 673.939 101.346L673.935 101.349C674.64 101.348 675.237 100.841 675.339 100.158C675.352 100.074 676.618 91.9281 681.046 88.5175C681.664 88.0426 681.772 87.1663 681.288 86.5604C680.803 85.9544 679.909 85.8482 679.291 86.3232C673.978 90.4119 672.583 99.371 672.527 99.7503C672.472 100.116 672.567 100.488 672.792 100.784C673.017 101.081 673.353 101.278 673.726 101.331Z" fill="#FEFEFE"/>
<path d="M41.7211 144.306C41.7211 135.539 34.5635 128.431 25.7341 128.431C21.8378 128.43 18.0768 129.849 15.1651 132.419C14.7158 132.814 14.2888 133.233 13.8861 133.675C6.18911 140.741 8.99857 151.296 5.21741 155.031C0.617062 159.576 1.14681 166.675 8.82968 167.933C25.9655 170.739 36.1765 156.342 36.1765 156.342C38.7911 153.515 41.7211 148.445 41.7211 144.303" fill="#FAD841"/>
<path d="M41.7211 144.306C41.7211 135.539 34.5635 128.431 25.7341 128.431C21.8378 128.43 18.0768 129.849 15.1651 132.419C14.7158 132.814 14.2888 133.233 13.8861 133.675C6.18911 140.741 8.99857 151.296 5.21741 155.031C0.617062 159.576 1.14681 166.675 8.82968 167.933C25.9655 170.739 36.1765 156.342 36.1765 156.342C38.7911 153.515 41.7211 148.445 41.7211 144.303" stroke="black" stroke-width="4"/>
<path d="M33.5045 152.285C33.5045 152.285 23.9708 165.642 6 164C6.9812 164.702 7.60288 165.208 9.50031 165.5C24.5 168.5 35 154.5 35 154.5C37.584 151.523 39.5158 147.934 39.4999 144.5C39.4999 142.696 39.1803 141.457 38.5662 139.738C38.5662 139.738 36.4495 149.12 33.5045 152.285Z" fill="#FAAC28"/>
<path d="M32.7873 130.574C32.2248 130.573 31.7213 130.232 31.5223 129.715C31.3232 129.199 31.4701 128.615 31.8912 128.249C36.2179 124.501 36.8726 117.272 36.878 117.2C36.9495 116.478 37.5976 115.946 38.3341 116.004C39.0707 116.063 39.6235 116.69 39.5761 117.414C39.5479 117.753 38.8376 125.776 33.6819 130.242C33.4352 130.456 33.1169 130.574 32.7873 130.573" fill="black"/>
<path d="M56.2954 129.288C43.8682 117.531 38.7207 129.686 38.7207 129.686C38.7207 129.686 44.452 141.703 56.2954 129.358C56.2954 129.288 56.2954 129.288 56.2954 129.288Z" fill="#3BB777" stroke="black" stroke-width="3" stroke-linejoin="round"/>
<path d="M52.6503 129.306L41.6992 129.571C41.6992 129.571 44.5 136.5 52.5 129.5" fill="#229857"/>
<path fill-rule="evenodd" clip-rule="evenodd" d="M21.0828 134.834C21.246 134.336 21.0871 133.791 20.6803 133.453C20.4142 133.231 20.0691 133.122 19.721 133.15C19.3728 133.178 19.0503 133.34 18.8242 133.601C18.4786 133.999 18.4118 134.562 18.655 135.028C18.8982 135.493 19.4034 135.769 19.935 135.726C20.4665 135.684 20.9196 135.331 21.0828 134.834ZM12.1481 146.422C12.1981 146.428 12.2486 146.432 12.2992 146.432L12.2962 146.434C12.7957 146.433 13.2192 146.074 13.2915 145.59C13.3006 145.53 14.1984 139.755 17.337 137.338C17.7752 137.001 17.852 136.38 17.5085 135.95C17.165 135.521 16.5313 135.445 16.093 135.782C12.3264 138.681 11.3379 145.032 11.2979 145.301C11.2589 145.56 11.3266 145.824 11.4861 146.034C11.6456 146.244 11.8837 146.383 12.1481 146.422Z" fill="#FEFEFE"/>
<ellipse cx="63.5" cy="85.5" rx="3.5" ry="4.5" fill="#FAD841"/>
<circle cx="61.5" cy="84.5" r="5" stroke="black"/>
<ellipse cx="132.5" cy="6.5" rx="3.5" ry="4.5" fill="#FAD841"/>
<circle cx="130.5" cy="5.5" r="5" stroke="black"/>
<circle cx="723.5" cy="105.5" r="1.5" fill="#FAD841"/>
<circle cx="723" cy="105" r="1.5" stroke="black"/>
<rect x="745.5" y="93.5" width="14" height="3" rx="1.5" fill="#FAD841" stroke="black"/>
<rect x="753.5" y="87.5" width="14" height="2" rx="1" transform="rotate(90 753.5 87.5)" fill="#FAD841" stroke="black"/>
<ellipse cx="669.5" cy="247.5" rx="3.5" ry="4.5" fill="#FAD841"/>
<circle cx="668" cy="247" r="4.5" stroke="black"/>
<rect x="650.5" y="275.5" width="13" height="2" rx="1" fill="#FAD841" stroke="black"/>
<rect x="658.5" y="269.5" width="13" height="3" rx="1.5" transform="rotate(90 658.5 269.5)" fill="#FAD841" stroke="black"/>
<rect x="682.5" y="56.5" width="11" height="3" rx="1.5" fill="#FAD841" stroke="black"/>
<rect x="689.5" y="52.5" width="11" height="3" rx="1.5" transform="rotate(90 689.5 52.5)" fill="#FAD841" stroke="black"/>
<path d="M639.891 90.498L639.587 90.1007L639.891 90.498L640.196 90.2643C640.376 90.1274 640.624 90.1274 640.804 90.2643L641.109 90.498C642.27 91.3846 643.884 90.2585 643.453 88.8632L643.284 88.3172C643.223 88.117 643.292 87.8995 643.459 87.7723L643.954 87.3936C645.094 86.5226 644.479 84.7016 643.044 84.7016H642.536C642.317 84.7016 642.123 84.5588 642.058 84.3492L641.933 83.9442C641.498 82.5347 639.502 82.5347 639.067 83.9442L638.942 84.3492L639.419 84.4969L638.942 84.3492C638.877 84.5588 638.683 84.7016 638.464 84.7016H637.956C636.521 84.7016 635.906 86.5226 637.046 87.3936L637.541 87.7723C637.708 87.8995 637.777 88.117 637.716 88.3172L637.547 88.8632C637.116 90.2585 638.73 91.3846 639.891 90.498Z" fill="#FAD841" stroke="black"/>
</svg>
