<svg width="336" height="285" viewBox="0 0 336 285" fill="none" xmlns="http://www.w3.org/2000/svg">
<path d="M266.664 211.007C299.36 185.515 305.054 138.156 279.381 105.228C268.056 90.6954 251.827 80.7965 233.776 77.411C230.997 76.8834 228.193 76.5099 225.375 76.2922C176.642 68.1343 145.45 109.301 120.526 106.061C90.2015 102.119 65.2684 124.735 82.9166 157.044C115.556 216.808 178.472 224.409 199 225.262C203.226 225.438 205.655 225.328 205.655 225.328C207.052 225.446 208.503 225.532 210 225.585C227.952 226.221 252.417 222.116 266.675 210.999" fill="#FAD841"/>
<path d="M266.13 211.226C285.202 196.356 295.086 174.046 294.917 151.5M266.141 211.218C251.882 222.335 227.418 226.44 209.466 225.804M192 225.059C166.936 222.853 112.106 211.687 82.3824 157.264C64.7342 124.955 89.6673 102.338 119.992 106.28C130.833 107.689 142.86 100.697 157 93.0171M168.52 87C184.41 79.2001 202.837 72.8279 224.841 76.5113C227.659 76.729 230.463 77.1025 233.242 77.6301C251.293 81.0157 267.522 90.9145 278.847 105.447C286.995 115.898 291.984 127.802 293.952 140" stroke="black" stroke-width="5" stroke-linecap="round" stroke-linejoin="round"/>
<path d="M216.005 207.917C216.005 207.917 127.529 215.154 80.0003 141C80.2086 146.91 81.9409 150.788 86.498 158.977C127.35 230.779 211.311 223.618 211.311 223.618C230.667 224.517 252.204 219.93 265.539 209.434C272.571 203.951 276.438 198.958 281.294 191.372C281.294 191.372 237.175 209.636 216.005 207.917Z" fill="#FAAC28"/>
<path fill-rule="evenodd" clip-rule="evenodd" d="M240.977 98.4994C243.308 97.661 244.878 95.4838 244.956 92.9839C245.009 91.3468 244.412 89.7431 243.296 88.5257C242.18 87.3082 240.637 86.577 239.007 86.4928C236.517 86.3614 234.223 87.7494 233.195 90.009C232.168 92.2686 232.608 94.9545 234.312 96.8134C236.016 98.6723 238.647 99.3379 240.977 98.4994ZM171.784 98.8726C171.904 99.0792 172.038 99.2776 172.185 99.4664L172.168 99.4616C173.623 101.322 176.194 101.857 178.211 100.718C178.458 100.579 202.605 87.1361 220.748 91.8105C223.278 92.4658 225.818 90.9461 226.421 88.416C227.024 85.886 225.462 83.3037 222.932 82.6483C201.171 77.0297 174.611 91.8106 173.491 92.4431C172.412 93.0514 171.625 94.0707 171.305 95.2765C170.985 96.4823 171.157 97.7759 171.784 98.8726Z" fill="#FEFEFE"/>
<path d="M234.03 126.535C209.23 138.98 172.319 131.721 156.532 126.535C152.5 125.211 140.884 163.554 152 173.5C171 190.5 234.972 185.529 241 169C245.822 155.777 235.5 125.798 234.03 126.535Z" fill="#F7EACB" stroke="#65460A" stroke-width="4"/>
<path d="M205.936 157.954H182.625C182.001 158 182.625 158.967 182.625 158.967C183 160 183.459 170 194 170C203.5 170 205.936 163.022 205.936 157.954Z" fill="#FC8888" stroke="#5A3A07" stroke-width="2" stroke-linecap="round" stroke-linejoin="round"/>
<ellipse cx="158.097" cy="160.331" rx="1.37593" ry="3.05459" transform="rotate(29.3882 158.097 160.331)" fill="#FC8888"/>
<ellipse cx="164.038" cy="160.277" rx="1.37593" ry="3.05459" transform="rotate(29.3882 164.038 160.277)" fill="#FC8888"/>
<ellipse cx="170.12" cy="160.277" rx="1.37593" ry="3.05459" transform="rotate(29.3882 170.12 160.277)" fill="#FC8888"/>
<ellipse cx="214.715" cy="162.304" rx="1.37593" ry="3.05459" transform="rotate(29.3882 214.715 162.304)" fill="#FC8888"/>
<ellipse cx="220.795" cy="162.304" rx="1.37593" ry="3.05459" transform="rotate(29.3882 220.795 162.304)" fill="#FC8888"/>
<ellipse cx="226.876" cy="162.304" rx="1.37593" ry="3.05459" transform="rotate(29.3882 226.876 162.304)" fill="#FC8888"/>
<circle cx="292" cy="58" r="3" fill="#FC8888"/>
<circle cx="290.5" cy="56.5" r="4" stroke="black"/>
<circle opacity="0.4" cx="288" cy="219" r="3" fill="#FAD841"/>
<circle opacity="0.4" cx="286.5" cy="217.5" r="4" stroke="black"/>
<rect x="304.5" y="93.5" width="18" height="4" rx="2" fill="#FAD841" stroke="black"/>
<rect x="315.5" y="86.5" width="18" height="4" rx="2" transform="rotate(90 315.5 86.5)" fill="#FAD841" stroke="black"/>
<rect opacity="0.3" x="301.309" y="158.293" width="14.5793" height="4.01762" rx="2.00881" transform="rotate(45.9769 301.309 158.293)" fill="#FAD841" stroke="black"/>
<rect opacity="0.3" x="311.568" y="161.309" width="14.5793" height="4.01762" rx="2.00881" transform="rotate(135.977 311.568 161.309)" fill="#FAD841" stroke="black"/>
<path d="M126.423 71.6933C125.968 70.3248 124.032 70.3248 123.577 71.6933L123.101 73.1234C123.033 73.3277 122.842 73.4656 122.626 73.4656H121.138C119.676 73.4656 119.078 75.3433 120.27 76.189L121.433 77.0137C121.612 77.141 121.687 77.3706 121.618 77.5794L121.164 78.9428C120.706 80.3185 122.273 81.4787 123.455 80.6399L124.711 79.7494C124.884 79.6264 125.116 79.6264 125.289 79.7494L126.545 80.6399C127.727 81.4787 129.294 80.3185 128.836 78.9428L128.382 77.5794C128.313 77.3706 128.388 77.141 128.567 77.0137L129.73 76.189C130.922 75.3433 130.324 73.4656 128.862 73.4656H127.374C127.158 73.4656 126.967 73.3277 126.899 73.1234L126.423 71.6933Z" fill="#FC8888" stroke="black"/>
<circle cx="168.436" cy="147.819" r="7.09458" fill="#5A3A07"/>
<ellipse cx="163.943" cy="140.512" rx="0.736069" ry="2.5" transform="rotate(-31.8166 163.943 140.512)" fill="#5A3A07"/>
<ellipse cx="167.762" cy="139.507" rx="0.736069" ry="2.5" transform="rotate(-0.590189 167.762 139.507)" fill="#5A3A07"/>
<ellipse cx="171.626" cy="140.593" rx="0.736069" ry="2.5" transform="rotate(22.2228 171.626 140.593)" fill="#5A3A07"/>
<circle cx="217.084" cy="149.846" r="7.09458" fill="#5A3A07"/>
<ellipse cx="212.943" cy="142.512" rx="0.736069" ry="2.5" transform="rotate(-31.8166 212.943 142.512)" fill="#5A3A07"/>
<ellipse cx="216.762" cy="141.507" rx="0.736069" ry="2.5" transform="rotate(-0.590189 216.762 141.507)" fill="#5A3A07"/>
<ellipse cx="220.626" cy="142.593" rx="0.736069" ry="2.5" transform="rotate(22.2228 220.626 142.593)" fill="#5A3A07"/>
<path d="M79.5 65H112C113.105 65 114 65.8954 114 67V67C114 68.1046 113.105 69 112 69H55M68 65H36C34.8954 65 34 65.8954 34 67V67C34 68.1046 34.8954 69 36 69H47" stroke="black" stroke-width="2" stroke-linecap="round"/>
<path d="M103.5 82H109C110.105 82 111 81.1046 111 80V80C111 78.8954 110.105 78 109 78H39M94 82H23C21.8954 82 21 81.1046 21 80V80C21 78.8954 21.8954 78 23 78H26.5" stroke="black" stroke-width="2" stroke-linecap="round"/>
<path d="M28 95H3C1.89543 95 1 94.1046 1 93V93C1 91.8954 1.89543 91 3 91H64M37.5 95H89C90.1046 95 91 94.1046 91 93V93C91 91.8954 90.1046 91 89 91H76" stroke="black" stroke-width="2" stroke-linecap="round"/>
<path d="M286.592 99.5206C255.577 99.3045 252.01 117.557 252.01 117.557C252.01 117.557 269.909 124.761 286.631 99.5963C286.592 99.5206 286.592 99.5206 286.592 99.5206Z" fill="#3BB777" stroke="black" stroke-width="5" stroke-linejoin="round"/>
<path d="M283.622 101.024L254.579 116.312C254.579 116.312 268.55 122.383 283.394 101.429" fill="#229857"/>
</svg>
