<svg width="233" height="211" viewBox="0 0 233 211" fill="none" xmlns="http://www.w3.org/2000/svg">
<path d="M199.543 157.695C223.978 138.643 228.234 103.25 209.048 78.6417C200.584 67.7806 188.455 60.3827 174.965 57.8525C172.888 57.4582 170.792 57.1791 168.686 57.0164C132.266 50.9196 108.955 81.6854 90.328 79.2637C67.6651 76.3179 49.0315 93.2202 62.2208 117.366C86.6137 162.03 133.633 167.71 148.975 168.348C152.133 168.48 153.949 168.397 153.949 168.397C154.992 168.485 156.077 168.55 157.196 168.589C170.612 169.065 188.896 165.997 199.551 157.688" fill="#FAD841"/>
<path d="M199.144 157.859C213.397 146.746 220.784 130.072 220.658 113.223M199.152 157.852C188.496 166.16 170.213 169.229 156.796 168.753M143.743 168.196C125.012 166.548 84.0348 158.203 61.8214 117.53C48.6321 93.384 67.2657 76.4818 89.9286 79.4275C98.0304 80.4809 107.019 75.2554 117.586 69.5157M126.196 65.0189C138.071 59.1897 151.843 54.4275 168.287 57.1802C170.393 57.3429 172.489 57.622 174.566 58.0163C188.056 60.5465 200.184 67.9444 208.648 78.8055C214.738 86.6157 218.466 95.5123 219.937 104.628" stroke="black" stroke-width="5" stroke-linecap="round" stroke-linejoin="round"/>
<path d="M161.684 155.385C161.684 155.385 95.5614 160.794 60.0411 105.375C60.1967 109.792 61.4914 112.69 64.8971 118.81C95.4278 172.471 158.175 167.119 158.175 167.119C172.641 167.791 188.736 164.363 198.702 156.519C203.957 152.422 206.848 148.69 210.477 143.021C210.477 143.021 177.504 156.67 161.684 155.385Z" fill="#FAAC28"/>
<path fill-rule="evenodd" clip-rule="evenodd" d="M180.346 73.6131C182.088 72.9865 183.261 71.3594 183.32 69.4911C183.359 68.2676 182.913 67.0691 182.079 66.1592C181.245 65.2494 180.092 64.7029 178.873 64.64C177.013 64.5418 175.299 65.5791 174.53 67.2678C173.762 68.9565 174.092 70.9638 175.365 72.3531C176.638 73.7423 178.604 74.2397 180.346 73.6131ZM128.634 73.8919C128.724 74.0463 128.824 74.1946 128.934 74.3356L128.921 74.3321C130.009 75.7225 131.93 76.1221 133.438 75.271C133.623 75.1675 151.669 65.1207 165.227 68.614C167.118 69.1038 169.016 67.968 169.467 66.0772C169.918 64.1864 168.751 62.2565 166.86 61.7668C150.596 57.5677 130.747 68.6142 129.911 69.0868C129.104 69.5415 128.516 70.3032 128.277 71.2043C128.037 72.1055 128.166 73.0722 128.634 73.8919Z" fill="#FEFEFE"/>
<path d="M175.155 94.5651C156.62 103.866 129.035 98.4404 117.237 94.5651C114.223 93.5755 105.542 122.231 113.85 129.664C128.049 142.369 175.859 138.654 180.363 126.301C183.967 116.419 176.253 94.0139 175.155 94.5651Z" fill="#F7EACB" stroke="#65460A" stroke-width="4"/>
<path d="M154.159 118.046H136.738C136.271 118.081 136.738 118.804 136.738 118.804C137.018 119.575 137.361 127.049 145.239 127.049C152.338 127.049 154.159 121.833 154.159 118.046Z" fill="#FC8888" stroke="#5A3A07" stroke-width="2" stroke-linecap="round" stroke-linejoin="round"/>
<ellipse cx="118.407" cy="119.823" rx="1.0283" ry="2.28283" transform="rotate(29.3882 118.407 119.823)" fill="#FC8888"/>
<ellipse cx="122.846" cy="119.782" rx="1.0283" ry="2.28283" transform="rotate(29.3882 122.846 119.782)" fill="#FC8888"/>
<ellipse cx="127.391" cy="119.782" rx="1.0283" ry="2.28283" transform="rotate(29.3882 127.391 119.782)" fill="#FC8888"/>
<ellipse cx="160.719" cy="121.297" rx="1.0283" ry="2.28283" transform="rotate(29.3882 160.719 121.297)" fill="#FC8888"/>
<ellipse cx="165.263" cy="121.297" rx="1.0283" ry="2.28283" transform="rotate(29.3882 165.263 121.297)" fill="#FC8888"/>
<ellipse cx="169.808" cy="121.297" rx="1.0283" ry="2.28283" transform="rotate(29.3882 169.808 121.297)" fill="#FC8888"/>
<circle cx="218.477" cy="43.346" r="2.24203" fill="#FC8888"/>
<circle cx="217.356" cy="42.2249" r="2.86305" stroke="black"/>
<circle opacity="0.4" cx="215.488" cy="163.668" r="2.24203" fill="#FAD841"/>
<circle opacity="0.4" cx="214.367" cy="162.547" r="2.86305" stroke="black"/>
<rect x="227.692" y="69.7502" width="13.7048" height="3.24203" rx="1.62102" fill="#FAD841" stroke="black"/>
<rect x="236.166" y="64.5188" width="13.7048" height="3.24203" rx="1.62102" transform="rotate(90 236.166 64.5188)" fill="#FAD841" stroke="black"/>
<rect opacity="0.3" x="225.437" y="118.121" width="11.1484" height="3.2552" rx="1.6276" transform="rotate(45.9769 225.437 118.121)" fill="#FAD841" stroke="black"/>
<rect opacity="0.3" x="233.28" y="120.557" width="11.1484" height="3.2552" rx="1.6276" transform="rotate(135.977 233.28 120.557)" fill="#FAD841" stroke="black"/>
<path d="M96.632 57.5011L96.3428 57.0933L96.632 57.5011C97.8243 56.6553 97.2259 54.7776 95.7642 54.7776H95.627C95.4117 54.7776 95.2205 54.6398 95.1525 54.4355L95.0941 54.26C94.6387 52.8915 92.703 52.8915 92.2476 54.26L92.6904 54.4073L92.2476 54.26L92.1892 54.4355C92.1212 54.6398 91.9301 54.7776 91.7148 54.7776H91.5775C90.1158 54.7776 89.5174 56.6553 90.7097 57.5011L90.7792 57.5504C90.9587 57.6777 91.0338 57.9073 90.9643 58.1161L90.9281 58.2249C90.4703 59.6006 92.0367 60.7609 93.2192 59.922L93.3816 59.8068C93.5548 59.6839 93.7869 59.6839 93.9601 59.8068L94.1225 59.922C95.305 60.7609 96.8714 59.6006 96.4136 58.2249L96.3774 58.1161C96.3079 57.9073 96.3831 57.6777 96.5625 57.5504L96.632 57.5011Z" fill="#FC8888" stroke="black"/>
<circle cx="126.132" cy="110.472" r="5.30209" fill="#5A3A07"/>
<ellipse cx="122.775" cy="105.011" rx="0.550097" ry="1.86836" transform="rotate(-31.8166 122.775 105.011)" fill="#5A3A07"/>
<ellipse cx="125.628" cy="104.26" rx="0.550097" ry="1.86836" transform="rotate(-0.590189 125.628 104.26)" fill="#5A3A07"/>
<ellipse cx="128.516" cy="105.071" rx="0.550097" ry="1.86836" transform="rotate(22.2228 128.516 105.071)" fill="#5A3A07"/>
<circle cx="162.489" cy="111.986" r="5.30209" fill="#5A3A07"/>
<ellipse cx="159.395" cy="106.506" rx="0.550097" ry="1.86836" transform="rotate(-31.8166 159.395 106.506)" fill="#5A3A07"/>
<ellipse cx="162.248" cy="105.755" rx="0.550097" ry="1.86836" transform="rotate(-0.590189 162.248 105.755)" fill="#5A3A07"/>
<ellipse cx="165.137" cy="106.566" rx="0.550097" ry="1.86836" transform="rotate(22.2228 165.137 106.566)" fill="#5A3A07"/>
<path d="M59.6663 48.5774H83.9549C84.7804 48.5774 85.4496 49.2466 85.4496 50.0721V50.0721C85.4496 50.8976 84.7804 51.5668 83.9549 51.5668H41.3563M51.0718 48.5774H27.1568C26.3313 48.5774 25.6621 49.2466 25.6621 50.0721V50.0721C25.6621 50.8976 26.3313 51.5668 27.1568 51.5668H35.3776" stroke="black" stroke-width="2" stroke-linecap="round"/>
<path d="M77.6031 61.2821H81.7135C82.539 61.2821 83.2082 60.6129 83.2082 59.7874V59.7874C83.2082 58.9619 82.539 58.2927 81.7135 58.2927H29.3995M70.5034 61.2821H17.442C16.6165 61.2821 15.9473 60.6129 15.9473 59.7874V59.7874C15.9473 58.9619 16.6165 58.2927 17.442 58.2927H20.0577" stroke="black" stroke-width="2" stroke-linecap="round"/>
<path d="M21.1783 70.9977H2.49469C1.6692 70.9977 1 70.3285 1 69.503V69.503C1 68.6775 1.66919 68.0083 2.49469 68.0083H48.0827M28.2781 70.9977H66.7663C67.5918 70.9977 68.261 70.3285 68.261 69.503V69.503C68.261 68.6775 67.5918 68.0083 66.7663 68.0083H57.0508" stroke="black" stroke-width="2" stroke-linecap="round"/>
<path d="M214.435 74.376C191.256 74.2146 188.59 87.8553 188.59 87.8553C188.59 87.8553 201.967 93.239 214.464 74.4326C214.435 74.376 214.435 74.376 214.435 74.376Z" fill="#3BB777" stroke="black" stroke-width="5" stroke-linejoin="round"/>
<path d="M212.216 75.4996L190.511 86.9255C190.511 86.9255 200.952 91.4626 212.045 75.8025" fill="#229857"/>
</svg>
