<svg width="46" height="46" viewBox="0 0 46 46" fill="none" xmlns="http://www.w3.org/2000/svg">
<path d="M35.797 0C41.3324 0 45.82 4.48763 45.82 10.023V35.797C45.82 41.3324 41.3324 45.82 35.797 45.82H10.023C4.48696 45.82 0 41.3324 0 35.797V10.023C0 4.48763 4.48696 0 10.023 0H35.797ZM2.86333 16.9712V35.797C2.86333 39.751 6.06897 42.9567 10.023 42.9567H27.5272C26.8318 29.4005 16.3209 18.3586 2.86333 16.9712ZM35.7977 2.86333H10.0237C6.06964 2.86333 2.864 6.06897 2.864 10.023V14.8127C17.5149 16.2135 28.977 28.2198 29.6784 42.956H35.7977C39.751 42.956 42.9573 39.751 42.9573 35.797V28.2796C38.8912 24.4034 32.4517 24.4618 28.4568 28.4561C28.358 28.56 28.2395 28.6431 28.1082 28.7005C27.9768 28.7579 27.8353 28.7884 27.692 28.7903C27.5486 28.7921 27.4064 28.7652 27.2736 28.7112C27.1408 28.6572 27.0202 28.5772 26.9188 28.4758C26.8175 28.3744 26.7374 28.2538 26.6834 28.121C26.6294 27.9883 26.6025 27.846 26.6044 27.7027C26.6062 27.5593 26.6367 27.4178 26.6941 27.2865C26.7515 27.1551 26.8346 27.0366 26.9385 26.9379C31.298 22.5778 38.0717 22.1025 42.9573 25.5122V10.023C42.9573 6.06897 39.7517 2.86333 35.7977 2.86333V2.86333ZM31.502 7.87517C31.9721 7.87517 32.4376 7.96776 32.8719 8.14766C33.3063 8.32757 33.7009 8.59126 34.0333 8.92367C34.3657 9.25609 34.6294 9.65073 34.8093 10.0851C34.9892 10.5194 35.0818 10.9849 35.0818 11.455C35.0818 11.9251 34.9892 12.3906 34.8093 12.8249C34.6294 13.2593 34.3657 13.6539 34.0333 13.9863C33.7009 14.3187 33.3063 14.5824 32.8719 14.7623C32.4376 14.9422 31.9721 15.0348 31.502 15.0348C30.5526 15.0348 29.642 14.6577 28.9707 13.9863C28.2993 13.315 27.9222 12.4044 27.9222 11.455C27.9222 10.5056 28.2993 9.59502 28.9707 8.92367C29.642 8.25232 30.5526 7.87517 31.502 7.87517V7.87517ZM31.502 9.30683C30.9324 9.30683 30.3861 9.53312 29.9833 9.93592C29.5805 10.3387 29.3542 10.885 29.3542 11.4547C29.3542 12.0243 29.5805 12.5706 29.9833 12.9734C30.3861 13.3762 30.9324 13.6025 31.502 13.6025C32.0716 13.6025 32.618 13.3762 33.0207 12.9734C33.4235 12.5706 33.6498 12.0243 33.6498 11.4547C33.6498 10.885 33.4235 10.3387 33.0207 9.93592C32.618 9.53312 32.0716 9.30683 31.502 9.30683V9.30683Z" fill="white"/>
</svg>
