<svg width="57" height="47" viewBox="0 0 57 47" fill="none" xmlns="http://www.w3.org/2000/svg">
<circle cx="22.91" cy="22.91" r="22.81" fill="white" stroke="#C4C4C4" stroke-width="0.2"/>
<path d="M14.6304 14.4288C14.8707 13.1472 15.9897 12.2185 17.2937 12.2185H20.9767C22.6733 12.2185 23.9527 13.76 23.64 15.4275L20.5175 32.0806C20.2772 33.3622 19.1582 34.2909 17.8543 34.2909H14.1712C12.4746 34.2909 11.1953 32.7495 11.5079 31.0819L14.6304 14.4288Z" fill="#5D2987"/>
<path d="M22.6737 25.4766C23.7436 26.731 25.6763 26.7472 26.7671 25.511L34.5231 16.7208C36.0669 14.9712 34.8247 12.2184 32.4913 12.2184H17.2379C14.9259 12.2184 13.6759 14.9275 15.1763 16.6865L22.6737 25.4766Z" fill="#FF3C88"/>
<path d="M20.3993 20.8526C21.474 19.6739 23.3292 19.6739 24.4039 20.8526L32.5215 29.7558C34.1077 31.4955 32.8735 34.2911 30.5192 34.2911H14.284C11.9297 34.2911 10.6954 31.4955 12.2816 29.7558L20.3993 20.8526Z" fill="#5DAFFD" style="mix-blend-mode:multiply"/>
<circle cx="46.9141" cy="36.515" r="9.445" fill="white" stroke="#C4C4C4" stroke-width="0.2"/>
<path d="M43.4834 32.8763C43.5721 32.4033 43.9851 32.0605 44.4663 32.0605H46.2631C46.8893 32.0605 47.3614 32.6294 47.246 33.2448L45.8967 40.4409C45.8081 40.9139 45.3951 41.2566 44.9139 41.2566H43.117C42.4909 41.2566 42.0188 40.6877 42.1342 40.0723L43.4834 32.8763Z" fill="#5D2987"/>
<path d="M46.9114 37.6975C47.3063 38.1604 48.0195 38.1664 48.4221 37.7101L51.9408 33.7222C52.5106 33.0765 52.0521 32.0606 51.191 32.0606H44.2708C43.4176 32.0606 42.9563 33.0604 43.51 33.7095L46.9114 37.6975Z" fill="#FF3C88"/>
<path d="M45.9629 35.5534C46.3595 35.1184 47.0441 35.1184 47.4408 35.5534L51.1148 39.583C51.7002 40.2251 51.2447 41.2568 50.3759 41.2568H43.0277C42.1589 41.2568 41.7034 40.2251 42.2888 39.583L45.9629 35.5534Z" fill="#5DAFFD" style="mix-blend-mode:multiply"/>
</svg>
