<svg width="19" height="19" viewBox="0 0 19 19" fill="none" xmlns="http://www.w3.org/2000/svg">
<circle cx="9.5" cy="9.5" r="9.5" fill="#FFE6BD"/>
<path d="M12.9122 9.4739C12.9122 7.71662 11.4775 6.29199 9.7078 6.29199C8.92685 6.29181 8.17302 6.57629 7.58941 7.09143C7.49935 7.17057 7.41377 7.25459 7.33305 7.3431C5.7903 8.75944 6.35342 10.875 5.59554 11.6236C4.67347 12.5346 4.77965 13.9574 6.31957 14.2095C9.75418 14.7721 11.8008 11.8864 11.8008 11.8864C12.3249 11.3197 12.9122 10.3035 12.9122 9.47331" fill="#FAD841"/>
<path d="M12.9122 9.4739C12.9122 7.71662 11.4775 6.29199 9.7078 6.29199C8.92685 6.29181 8.17302 6.57629 7.58941 7.09143C7.49935 7.17057 7.41377 7.25459 7.33305 7.3431C5.7903 8.75944 6.35342 10.875 5.59554 11.6236C4.67347 12.5346 4.77965 13.9574 6.31957 14.2095C9.75418 14.7721 11.8008 11.8864 11.8008 11.8864C12.3249 11.3197 12.9122 10.3035 12.9122 9.47331" stroke="black"/>
<path d="M11.1991 11.2563C11.1991 11.2563 9.47919 13.8461 5.91699 13.533C6.11149 13.6669 6.06051 13.7447 6.43662 13.8004C9.75676 14.261 11.5848 11.7718 11.5848 11.7718C12.097 11.2039 12.488 10.4947 12.4848 9.83962C12.4848 9.49544 12.4667 9.05394 12.345 8.72607C12.345 8.72607 11.7828 10.6527 11.1991 11.2563Z" fill="#FAAC28"/>
<path d="M11.1207 6.72122C11.008 6.72108 10.9071 6.65254 10.8672 6.54902C10.8273 6.4455 10.8567 6.32855 10.9411 6.25518C11.8084 5.50392 11.9396 4.05502 11.9407 4.04063C11.955 3.89592 12.0849 3.78923 12.2325 3.80093C12.3802 3.81262 12.491 3.93838 12.4815 4.08348C12.4758 4.15134 12.3334 5.75948 11.3001 6.65456C11.2506 6.69755 11.1868 6.72122 11.1207 6.72107" fill="black"/>
<path d="M15.8322 6.46337C13.3413 4.10678 12.3096 6.54312 12.3096 6.54312C12.3096 6.54312 13.4583 8.95169 15.8322 6.47745C15.8322 6.46337 15.8322 6.46337 15.8322 6.46337Z" fill="#3BB777" stroke="black" stroke-linejoin="round"/>
<path d="M15.3096 6.48535H12.8037C12.8037 6.48535 13.5197 8.27529 15.2801 6.51808" fill="#229857"/>
<path fill-rule="evenodd" clip-rule="evenodd" d="M8.77638 7.57463C8.80908 7.47488 8.77724 7.36564 8.69571 7.29788C8.64237 7.25345 8.57319 7.23161 8.50342 7.23718C8.43365 7.24275 8.36899 7.27527 8.32368 7.32758C8.25441 7.40737 8.24102 7.52022 8.28976 7.61347C8.3385 7.70671 8.43977 7.76198 8.54631 7.75348C8.65285 7.74497 8.74367 7.67437 8.77638 7.57463ZM6.98507 9.89696C6.9951 9.89833 7.00523 9.89902 7.01536 9.89904L7.01475 9.89948C7.11487 9.89934 7.19976 9.82732 7.21425 9.73022C7.21607 9.71834 7.39602 8.56084 8.0251 8.07622C8.11295 8.00873 8.12834 7.88422 8.05949 7.79812C7.99064 7.71202 7.86362 7.69693 7.77577 7.76442C7.02081 8.3454 6.82268 9.61842 6.81465 9.67232C6.80685 9.72426 6.82042 9.77711 6.85238 9.81924C6.88434 9.86137 6.93207 9.88933 6.98507 9.89696Z" fill="#FEFEFE"/>
</svg>
