<svg width="45" height="45" viewBox="0 0 45 45" fill="none" xmlns="http://www.w3.org/2000/svg">
<circle cx="22.5" cy="22.5" r="22.5" fill="#FFE6BD"/>
<path d="M30.5822 22.4375C30.5822 18.2755 27.1843 14.9014 22.9929 14.9014C21.1433 14.9009 19.3579 15.5747 17.9756 16.7948C17.7623 16.9822 17.5596 17.1812 17.3685 17.3908C13.7146 20.7453 15.0483 25.7558 13.2533 27.529C11.0695 29.6864 11.3209 33.0563 14.9681 33.6534C23.1027 34.9858 27.9501 28.1513 27.9501 28.1513C29.1912 26.8091 30.5822 24.4024 30.5822 22.4361" fill="#FAD841"/>
<path d="M30.5822 22.4375C30.5822 18.2755 27.1843 14.9014 22.9929 14.9014C21.1433 14.9009 19.3579 15.5747 17.9756 16.7948C17.7623 16.9822 17.5596 17.1812 17.3685 17.3908C13.7146 20.7453 15.0483 25.7558 13.2533 27.529C11.0695 29.6864 11.3209 33.0563 14.9681 33.6534C23.1027 34.9858 27.9501 28.1513 27.9501 28.1513C29.1912 26.8091 30.5822 24.4024 30.5822 22.4361" stroke="black"/>
<path d="M26.5219 26.6591C26.5219 26.6591 22.4485 32.793 14.0117 32.0513C14.4724 32.3685 14.3516 32.5528 15.2424 32.6846C23.1059 33.7755 27.4354 27.8802 27.4354 27.8802C28.6485 26.5352 29.5747 24.8553 29.5672 23.3039C29.5672 22.4887 29.5242 21.443 29.2359 20.6665C29.2359 20.6665 27.9045 25.2295 26.5219 26.6591Z" fill="#FAAC28"/>
<path d="M26.3385 15.9186C26.0714 15.9182 25.8324 15.7559 25.7379 15.5107C25.6434 15.2655 25.7131 14.9886 25.9131 14.8148C27.967 13.0355 28.2778 9.60387 28.2803 9.56981C28.3143 9.22706 28.622 8.97438 28.9716 9.00208C29.3213 9.02978 29.5837 9.32763 29.5612 9.67128C29.5478 9.832 29.2106 13.6408 26.7631 15.7607C26.646 15.8625 26.4949 15.9186 26.3385 15.9182" fill="black"/>
<path d="M37.4982 15.3081C31.5989 9.72667 29.1553 15.497 29.1553 15.497C29.1553 15.497 31.876 21.2015 37.4982 15.3414C37.4982 15.3081 37.4982 15.3081 37.4982 15.3081Z" fill="#3BB777" stroke="black" stroke-linejoin="round"/>
<path d="M36.2612 15.3594H30.3262C30.3262 15.3594 32.0219 19.5987 36.1913 15.4369" fill="#229857"/>
<path fill-rule="evenodd" clip-rule="evenodd" d="M20.7838 17.9404C20.8613 17.7041 20.7859 17.4454 20.5928 17.2849C20.4664 17.1797 20.3026 17.128 20.1373 17.1412C19.9721 17.1544 19.819 17.2314 19.7116 17.3553C19.5476 17.5443 19.5159 17.8115 19.6313 18.0324C19.7467 18.2532 19.9866 18.3841 20.2389 18.364C20.4913 18.3438 20.7063 18.1766 20.7838 17.9404ZM16.5415 23.4408C16.5653 23.444 16.5893 23.4457 16.6133 23.4457L16.6118 23.4468C16.8489 23.4464 17.05 23.2758 17.0843 23.0459C17.0886 23.0177 17.5148 20.2763 19.0048 19.1285C19.2128 18.9687 19.2493 18.6738 19.0862 18.4698C18.9231 18.2659 18.6223 18.2302 18.4143 18.39C16.6262 19.766 16.1569 22.7811 16.1379 22.9087C16.1194 23.0317 16.1516 23.1569 16.2273 23.2567C16.303 23.3565 16.416 23.4227 16.5415 23.4408Z" fill="#FEFEFE"/>
</svg>
