<svg width="45" height="45" viewBox="0 0 45 45" fill="none" xmlns="http://www.w3.org/2000/svg">
<circle cx="22.5" cy="22.5" r="22.5" fill="white"/>
<path d="M10.1769 10.1892C10.5236 8.3403 12.138 7.00049 14.0191 7.00049H19.095C21.5427 7.00049 23.3883 9.22429 22.9372 11.63L18.5394 35.0847C18.1928 36.9337 16.5784 38.2735 14.6973 38.2735H9.62134C7.17369 38.2735 5.3281 36.0497 5.77917 33.6439L10.1769 10.1892Z" fill="#5D2987"/>
<path d="M21.5304 25.7235C23.0739 27.5332 25.8622 27.5565 27.4358 25.7731L38.2689 13.4956C40.496 10.9715 38.7039 7.00017 35.3377 7.00017H14.0327C10.6974 7.00017 8.8941 10.9085 11.0585 13.4461L21.5304 25.7235Z" fill="#FF3C88"/>
<path d="M18.3085 19.2898C19.8589 17.5894 22.5354 17.5894 24.0858 19.2898L35.4287 31.7304C37.717 34.2401 35.9364 38.2733 32.54 38.2733H9.85425C6.45787 38.2733 4.67726 34.2401 6.96559 31.7304L18.3085 19.2898Z" fill="#5DAFFD" style="mix-blend-mode:multiply"/>
<circle cx="36" cy="36" r="9" fill="white"/>
<path d="M32.9023 32.6984C32.9023 33.079 32.9773 33.4559 33.1229 33.8075C33.2686 34.1591 33.4821 34.4786 33.7512 34.7477C34.0203 35.0168 34.3398 35.2303 34.6914 35.3759C35.043 35.5216 35.4199 35.5965 35.8005 35.5965C36.181 35.5965 36.5579 35.5216 36.9095 35.3759C37.2611 35.2303 37.5806 35.0168 37.8497 34.7477C38.1188 34.4786 38.3323 34.1591 38.478 33.8075C38.6236 33.4559 38.6986 33.079 38.6986 32.6984C38.6986 32.3178 38.6236 31.941 38.478 31.5893C38.3323 31.2377 38.1188 30.9182 37.8497 30.6491C37.5806 30.38 37.2611 30.1665 36.9095 30.0209C36.5579 29.8753 36.181 29.8003 35.8005 29.8003C35.4199 29.8003 35.043 29.8753 34.6914 30.0209C34.3398 30.1665 34.0203 30.38 33.7512 30.6491C33.4821 30.9182 33.2686 31.2377 33.1229 31.5893C32.9773 31.941 32.9023 32.3178 32.9023 32.6984Z" fill="#88BDF3"/>
<path d="M32.9023 39.7018C32.9023 40.0824 32.9773 40.4593 33.1229 40.8109C33.2686 41.1625 33.4821 41.482 33.7512 41.7511C34.0203 42.0202 34.3398 42.2337 34.6914 42.3793C35.043 42.525 35.4199 42.5999 35.8005 42.5999C36.181 42.5999 36.5579 42.525 36.9095 42.3793C37.2611 42.2337 37.5806 42.0202 37.8497 41.7511C38.1188 41.482 38.3323 41.1625 38.478 40.8109C38.6236 40.4593 38.6986 40.0824 38.6986 39.7018C38.6986 39.3212 38.6236 38.9444 38.478 38.5928C38.3323 38.2411 38.1188 37.9217 37.8497 37.6525C37.5806 37.3834 37.2611 37.17 36.9095 37.0243C36.5579 36.8787 36.181 36.8037 35.8005 36.8037C35.4199 36.8037 35.043 36.8787 34.6914 37.0243C34.3398 37.17 34.0203 37.3834 33.7512 37.6525C33.4821 37.9217 33.2686 38.2411 33.1229 38.5928C32.9773 38.9444 32.9023 39.3212 32.9023 39.7018Z" fill="#3075EE"/>
<path d="M36.4043 36.2001C36.4043 36.5807 36.4792 36.9575 36.6248 37.3092C36.7705 37.6608 36.9839 37.9803 37.2531 38.2495C37.5222 38.5186 37.8417 38.7321 38.1933 38.8777C38.5449 39.0234 38.9218 39.0984 39.3024 39.0984C39.683 39.0984 40.0599 39.0234 40.4115 38.8777C40.7631 38.7321 41.0826 38.5186 41.3518 38.2495C41.6209 37.9803 41.8343 37.6608 41.98 37.3092C42.1256 36.9575 42.2005 36.5807 42.2005 36.2001C42.2005 35.8195 42.1256 35.4426 41.98 35.0909C41.8343 34.7393 41.6209 34.4198 41.3518 34.1507C41.0826 33.8815 40.7631 33.668 40.4115 33.5224C40.0599 33.3767 39.683 33.3018 39.3024 33.3018C38.9218 33.3018 38.5449 33.3767 38.1933 33.5224C37.8417 33.668 37.5222 33.8815 37.2531 34.1507C36.9839 34.4198 36.7705 34.7393 36.6248 35.0909C36.4792 35.4426 36.4043 35.8195 36.4043 36.2001Z" fill="#5795F1"/>
<path d="M29.4004 36.2001C29.4004 36.5807 29.4753 36.9575 29.6209 37.3092C29.7666 37.6608 29.98 37.9803 30.2492 38.2495C30.5183 38.5186 30.8378 38.7321 31.1894 38.8777C31.541 39.0234 31.9179 39.0984 32.2985 39.0984C32.6791 39.0984 33.056 39.0234 33.4076 38.8777C33.7592 38.7321 34.0787 38.5186 34.3478 38.2495C34.617 37.9803 34.8304 37.6608 34.9761 37.3092C35.1217 36.9575 35.1966 36.5807 35.1966 36.2001C35.1966 35.8195 35.1217 35.4426 34.9761 35.0909C34.8304 34.7393 34.617 34.4198 34.3478 34.1507C34.0787 33.8815 33.7592 33.668 33.4076 33.5224C33.056 33.3767 32.6791 33.3018 32.2985 33.3018C31.9179 33.3018 31.541 33.3767 31.1894 33.5224C30.8378 33.668 30.5183 33.8815 30.2492 34.1507C29.98 34.4198 29.7666 34.7393 29.6209 35.0909C29.4753 35.4426 29.4004 35.8195 29.4004 36.2001Z" fill="#205FEC"/>
<path d="M35.1176 35.518C34.6011 35.3924 34.129 35.1272 33.7531 34.7513C33.3772 34.3753 33.1119 33.9033 32.9863 33.3867C33.502 33.5142 33.973 33.7801 34.3486 34.1557C34.7242 34.5313 34.9901 35.0024 35.1176 35.518Z" fill="#134BEF"/>
<path d="M32.9805 39.0195C33.1061 38.5029 33.3713 38.0309 33.7473 37.655C34.1232 37.2791 34.5952 37.0138 35.1118 36.8882C34.9843 37.4038 34.7184 37.8749 34.3428 38.2505C33.9672 38.6261 33.4961 38.892 32.9805 39.0195Z" fill="#0932E8"/>
<path d="M36.4824 36.8823C36.999 37.0079 37.471 37.2732 37.847 37.6491C38.2229 38.025 38.4881 38.4971 38.6137 39.0136C38.0981 38.8861 37.6271 38.6202 37.2514 38.2446C36.8758 37.869 36.6099 37.398 36.4824 36.8823Z" fill="#164BEA"/>
<path d="M38.6196 33.3804C38.494 33.8969 38.2287 34.369 37.8528 34.7449C37.4769 35.1208 37.0048 35.3861 36.4883 35.5117C36.6158 34.996 36.8817 34.525 37.2573 34.1494C37.6329 33.7738 38.104 33.5079 38.6196 33.3804Z" fill="#3170F1"/>
</svg>
