<svg width="608" height="125" viewBox="0 0 608 125" fill="none" xmlns="http://www.w3.org/2000/svg">
<path d="M572.72 7.99972C574.08 7.99972 575.2 9.11972 575.2 10.5597V28.6397C575.2 30.0797 574.08 31.1997 572.72 31.1997H547.28C545.92 31.1997 544.8 30.0797 544.8 28.6397V10.5597C544.8 9.11972 545.92 7.99972 547.28 7.99972H553.52C553.44 8.39972 554.08 10.1597 554.08 10.5597H547.2V28.6397H572.64V7.99972H572.72ZM569.84 15.6797C569.44 15.6797 569.12 15.5197 568.8 15.2797L566.24 12.7197C563.6 14.4797 560.08 14.1597 557.76 11.9997C555.44 9.83972 554.88 6.39972 556.4 3.59972C557.92 0.799716 561.12 -0.560284 564.16 0.239716C567.2 1.03972 569.36 3.75972 569.36 6.95972C569.36 8.31972 568.96 9.59972 568.24 10.7197L570.8 13.2797C571.2 13.6797 571.36 14.3197 571.12 14.7997C570.96 15.3597 570.4 15.6797 569.84 15.6797ZM562.48 2.87972C560.24 2.87972 558.4 4.71972 558.4 6.95972C558.4 9.19972 560.24 11.0397 562.48 11.0397C564.72 11.0397 566.56 9.19972 566.56 6.95972C566.48 4.71972 564.72 2.87972 562.48 2.87972ZM558.64 19.8397C559.04 20.0797 559.44 20.4797 559.68 20.9597C559.92 21.4397 560 21.9997 560 22.6397C560 23.1997 559.84 23.6797 559.52 24.1597C559.2 24.5597 558.88 24.8797 558.4 25.1997C558 25.4397 557.44 25.6797 556.96 25.8397C556.56 25.9197 556.24 25.9997 555.84 25.9997V26.3997C555.84 26.5597 555.76 26.6397 555.68 26.7197C555.6 26.7997 555.44 26.8797 555.36 26.8797H554.4C554.24 26.8797 554.16 26.7997 554.08 26.7197C554 26.6397 553.92 26.4797 553.92 26.3997V25.9197C552.96 25.8397 552 25.5997 551.36 25.1997C550.56 24.7197 550 23.9197 549.68 22.9597C549.68 22.7997 549.6 22.6397 549.6 22.5597V22.1597C549.6 21.9997 549.6 21.8397 549.76 21.7597C549.84 21.6797 550 21.5997 550.16 21.5997H551.44C551.6 21.5997 551.68 21.6797 551.76 21.7597C551.84 21.8397 551.92 21.9997 551.92 22.0797C551.92 22.3197 552 22.6397 552.08 22.8797C552.16 23.1197 552.32 23.3597 552.56 23.5197C552.8 23.6797 553.04 23.8397 553.36 23.9997C553.52 24.0797 553.76 24.0797 554 24.1597V20.5597C553.6 20.4797 553.2 20.3997 552.88 20.2397C552.4 20.0797 551.92 19.9197 551.52 19.6797C551.12 19.4397 550.8 19.1197 550.56 18.7197C550.32 18.3197 550.16 17.7597 550.16 17.2797C550.16 16.7997 550.32 16.3197 550.56 15.8397C550.8 15.4397 551.12 15.0397 551.52 14.7997C551.92 14.4797 552.4 14.3197 552.88 14.1597C553.2 14.0797 553.6 13.9997 554 13.9997V13.5197C554 13.3597 554.08 13.2797 554.16 13.1997C554.24 13.1197 554.4 13.0397 554.48 13.0397H555.36C555.52 13.0397 555.6 13.1197 555.68 13.1997C555.76 13.2797 555.84 13.4397 555.84 13.5197V13.9997C556.24 13.9997 556.56 14.0797 556.96 14.1597C557.44 14.3197 557.92 14.4797 558.32 14.7197C558.72 14.9597 559.04 15.3597 559.28 15.7597C559.52 16.1597 559.68 16.6397 559.68 17.1197C559.68 17.2797 559.6 17.3597 559.52 17.5197C559.36 17.5197 559.2 17.5997 559.12 17.5997H557.84C557.68 17.5997 557.6 17.5197 557.52 17.4397C557.44 17.3597 557.36 17.1997 557.36 17.1197C557.36 16.9597 557.28 16.7997 557.2 16.6397C557.12 16.4797 556.96 16.3197 556.8 16.2397C556.64 16.0797 556.4 15.9997 556.16 15.9197C556.08 15.9197 555.92 15.8397 555.84 15.8397V18.9597C556.32 19.0397 556.8 19.1997 557.2 19.2797C557.76 19.3597 558.24 19.5997 558.64 19.8397ZM553.52 18.3997C553.6 18.3997 553.76 18.4797 553.92 18.4797V15.7597C553.76 15.7597 553.68 15.8397 553.52 15.8397C553.28 15.9197 553.04 15.9997 552.8 16.1597C552.64 16.3197 552.48 16.3997 552.4 16.6397C552.32 16.7997 552.24 16.9597 552.24 17.1997C552.24 17.4397 552.32 17.6797 552.4 17.7597C552.48 17.9197 552.64 18.0797 552.8 18.1597L553.52 18.3997ZM557.12 23.5997C557.36 23.4397 557.52 23.2797 557.6 23.0397C557.68 22.8797 557.76 22.6397 557.76 22.3997C557.76 22.0797 557.68 21.8397 557.6 21.7597C557.52 21.5997 557.36 21.4397 557.12 21.2797C556.88 21.1197 556.64 21.0397 556.32 20.9597C556.16 20.8797 556 20.8797 555.76 20.7997V24.0797C555.92 24.0797 556.08 23.9997 556.24 23.9997C556.64 23.9197 556.88 23.7597 557.12 23.5997ZM562.8 23.1997H569.2C569.84 23.1997 570.4 23.7597 570.4 24.3997C570.4 25.0397 569.84 25.5997 569.2 25.5997H562.8C562.16 25.5997 561.6 25.0397 561.6 24.3997C561.6 23.7597 562.16 23.1997 562.8 23.1997ZM562.8 19.1997H569.2C569.84 19.1997 570.4 19.7597 570.4 20.3997C570.4 21.0397 569.84 21.5997 569.2 21.5997H562.8C562.16 21.5997 561.6 21.0397 561.6 20.3997C561.6 19.7597 562.16 19.1997 562.8 19.1997Z" fill="#5DAFFD"/>
<circle cx="16" cy="60" r="15.5" stroke="#5DAFFD"/>
<circle cx="288" cy="60" r="15.5" stroke="#5DAFFD"/>
<circle cx="152" cy="60" r="15.5" stroke="#5DAFFD"/>
<circle cx="424" cy="60" r="15.5" stroke="#5DAFFD"/>
<line x1="44" y1="59.5" x2="124" y2="59.5" stroke="#5DAFFD"/>
<line x1="180" y1="59.5" x2="260" y2="59.5" stroke="#5DAFFD"/>
<line x1="316" y1="59.5" x2="396" y2="59.5" stroke="#5DAFFD"/>
<path d="M17.0813 54.4182V66H14.9303V56.2216H12.4816V54.4182H17.0813Z" fill="#5DAFFD"/>
<path d="M156.302 64.18V66H147.764V64.5605L152.364 60.1925C152.882 59.6962 153.23 59.266 153.406 58.902C153.594 58.527 153.687 58.1575 153.687 57.7935C153.687 57.253 153.505 56.8393 153.141 56.5525C152.777 56.2658 152.242 56.1224 151.536 56.1224C150.356 56.1224 149.452 56.525 148.823 57.3302L147.317 56.172C147.77 55.5653 148.376 55.0965 149.137 54.7656C149.909 54.4237 150.77 54.2527 151.718 54.2527C152.976 54.2527 153.98 54.5505 154.73 55.1462C155.48 55.7418 155.855 56.5525 155.855 57.5784C155.855 58.2071 155.722 58.7972 155.458 59.3487C155.193 59.9002 154.686 60.529 153.936 61.2349L150.842 64.18H156.302Z" fill="#5DAFFD"/>
<path d="M288.844 59.1998C289.913 59.3322 290.73 59.6962 291.292 60.2918C291.855 60.8875 292.136 61.632 292.136 62.5255C292.136 63.1983 291.965 63.8105 291.623 64.362C291.281 64.9135 290.763 65.3547 290.068 65.6856C289.384 66.0055 288.546 66.1655 287.553 66.1655C286.726 66.1655 285.926 66.0496 285.154 65.818C284.393 65.5753 283.742 65.2444 283.202 64.8253L284.128 63.1542C284.547 63.5072 285.055 63.7884 285.65 63.998C286.257 64.1965 286.88 64.2958 287.52 64.2958C288.281 64.2958 288.877 64.1414 289.307 63.8325C289.748 63.5127 289.969 63.0825 289.969 62.542C289.969 62.0015 289.759 61.5824 289.34 61.2845C288.932 60.9757 288.303 60.8213 287.454 60.8213H286.395V59.3487L289.026 56.2216H283.764V54.4182H291.656V55.8576L288.844 59.1998Z" fill="#5DAFFD"/>
<path d="M428.438 63.3693H426.386V66H424.301V63.3693H417.948V61.8802L423.656 54.4182H425.956L420.578 61.5493H424.367V59.2164H426.386V61.5493H428.438V63.3693Z" fill="#5DAFFD"/>
<circle cx="424" cy="60" r="15.5" stroke="#5DAFFD"/>
<line x1="316" y1="59.5" x2="396" y2="59.5" stroke="#5DAFFD"/>
<path d="M428.438 63.3693H426.386V66H424.301V63.3693H417.948V61.8802L423.656 54.4182H425.956L420.578 61.5493H424.367V59.2164H426.386V61.5493H428.438V63.3693Z" fill="#5DAFFD"/>
<circle cx="560" cy="60" r="15.5" stroke="#5DAFFD"/>
<line x1="452" y1="59.5" x2="532" y2="59.5" stroke="#5DAFFD"/>
<path d="M559.52 58.902C561.153 58.902 562.361 59.2219 563.144 59.8616C563.927 60.4904 564.318 61.3507 564.318 62.4427C564.318 63.1376 564.148 63.7664 563.806 64.3289C563.464 64.8915 562.951 65.3382 562.267 65.6691C561.583 66 560.739 66.1655 559.735 66.1655C558.908 66.1655 558.108 66.0496 557.336 65.818C556.564 65.5753 555.913 65.2444 555.384 64.8253L556.294 63.1542C556.724 63.5072 557.237 63.7884 557.833 63.998C558.439 64.1965 559.063 64.2958 559.702 64.2958C560.463 64.2958 561.059 64.1414 561.489 63.8325C561.93 63.5127 562.151 63.077 562.151 62.5255C562.151 61.9298 561.914 61.4831 561.44 61.1853C560.976 60.8764 560.177 60.722 559.04 60.722H556.244L556.84 54.4182H563.64V56.2216H558.66L558.412 58.902H559.52Z" fill="#5DAFFD"/>
<path d="M3.416 96.418H0.056V95.2H8.162V96.418H4.802V105H3.416V96.418ZM11.9032 105.084C11.1658 105.084 10.5032 104.921 9.91517 104.594C9.32717 104.267 8.86517 103.819 8.52917 103.25C8.20251 102.671 8.03917 102.018 8.03917 101.29C8.03917 100.562 8.20251 99.9133 8.52917 99.344C8.86517 98.7653 9.32717 98.3173 9.91517 98C10.5032 97.6733 11.1658 97.51 11.9032 97.51C12.6405 97.51 13.2985 97.6733 13.8772 98C14.4652 98.3173 14.9225 98.7653 15.2492 99.344C15.5852 99.9133 15.7532 100.562 15.7532 101.29C15.7532 102.018 15.5852 102.671 15.2492 103.25C14.9225 103.819 14.4652 104.267 13.8772 104.594C13.2985 104.921 12.6405 105.084 11.9032 105.084ZM11.9032 103.908C12.3792 103.908 12.8038 103.801 13.1772 103.586C13.5598 103.362 13.8585 103.054 14.0732 102.662C14.2878 102.261 14.3952 101.803 14.3952 101.29C14.3952 100.777 14.2878 100.324 14.0732 99.932C13.8585 99.5307 13.5598 99.2227 13.1772 99.008C12.8038 98.7933 12.3792 98.686 11.9032 98.686C11.4272 98.686 10.9978 98.7933 10.6152 99.008C10.2418 99.2227 9.94317 99.5307 9.71917 99.932C9.50451 100.324 9.39717 100.777 9.39717 101.29C9.39717 101.803 9.50451 102.261 9.71917 102.662C9.94317 103.054 10.2418 103.362 10.6152 103.586C10.9978 103.801 11.4272 103.908 11.9032 103.908ZM28.3717 94.612V105H27.0837V103.824C26.785 104.235 26.407 104.547 25.9497 104.762C25.4923 104.977 24.9883 105.084 24.4377 105.084C23.719 105.084 23.075 104.925 22.5057 104.608C21.9363 104.291 21.4883 103.847 21.1617 103.278C20.8443 102.699 20.6857 102.037 20.6857 101.29C20.6857 100.543 20.8443 99.8853 21.1617 99.316C21.4883 98.7467 21.9363 98.3033 22.5057 97.986C23.075 97.6687 23.719 97.51 24.4377 97.51C24.9697 97.51 25.4597 97.6127 25.9077 97.818C26.3557 98.014 26.729 98.308 27.0277 98.7V94.612H28.3717ZM24.5497 103.908C25.0163 103.908 25.441 103.801 25.8237 103.586C26.2063 103.362 26.505 103.054 26.7197 102.662C26.9343 102.261 27.0417 101.803 27.0417 101.29C27.0417 100.777 26.9343 100.324 26.7197 99.932C26.505 99.5307 26.2063 99.2227 25.8237 99.008C25.441 98.7933 25.0163 98.686 24.5497 98.686C24.0737 98.686 23.6443 98.7933 23.2617 99.008C22.8883 99.2227 22.5897 99.5307 22.3657 99.932C22.151 100.324 22.0437 100.777 22.0437 101.29C22.0437 101.803 22.151 102.261 22.3657 102.662C22.5897 103.054 22.8883 103.362 23.2617 103.586C23.6443 103.801 24.0737 103.908 24.5497 103.908ZM30.9146 97.58H32.2586V105H30.9146V97.58ZM31.5866 96.152C31.3253 96.152 31.106 96.068 30.9286 95.9C30.7606 95.732 30.6766 95.5267 30.6766 95.284C30.6766 95.0413 30.7606 94.836 30.9286 94.668C31.106 94.4907 31.3253 94.402 31.5866 94.402C31.848 94.402 32.0626 94.486 32.2306 94.654C32.408 94.8127 32.4966 95.0133 32.4966 95.256C32.4966 95.508 32.408 95.7227 32.2306 95.9C32.0626 96.068 31.848 96.152 31.5866 96.152ZM36.9528 105.084C36.3461 105.084 35.7628 105.005 35.2028 104.846C34.6428 104.678 34.2041 104.468 33.8868 104.216L34.4468 103.152C34.7734 103.385 35.1701 103.572 35.6368 103.712C36.1034 103.852 36.5748 103.922 37.0508 103.922C38.2268 103.922 38.8148 103.586 38.8148 102.914C38.8148 102.69 38.7354 102.513 38.5768 102.382C38.4181 102.251 38.2174 102.158 37.9748 102.102C37.7414 102.037 37.4054 101.967 36.9668 101.892C36.3694 101.799 35.8794 101.691 35.4968 101.57C35.1234 101.449 34.8014 101.243 34.5308 100.954C34.2601 100.665 34.1248 100.259 34.1248 99.736C34.1248 99.064 34.4048 98.5273 34.9648 98.126C35.5248 97.7153 36.2761 97.51 37.2188 97.51C37.7134 97.51 38.2081 97.5707 38.7028 97.692C39.1974 97.8133 39.6034 97.9767 39.9208 98.182L39.3468 99.246C38.7401 98.854 38.0261 98.658 37.2048 98.658C36.6354 98.658 36.2014 98.7513 35.9028 98.938C35.6041 99.1247 35.4548 99.372 35.4548 99.68C35.4548 99.9227 35.5388 100.114 35.7068 100.254C35.8748 100.394 36.0801 100.497 36.3228 100.562C36.5748 100.627 36.9248 100.702 37.3728 100.786C37.9701 100.889 38.4508 101.001 38.8148 101.122C39.1881 101.234 39.5054 101.43 39.7668 101.71C40.0281 101.99 40.1588 102.382 40.1588 102.886C40.1588 103.558 39.8694 104.095 39.2908 104.496C38.7214 104.888 37.9421 105.084 36.9528 105.084ZM45.0725 105.084C44.3165 105.084 43.6398 104.921 43.0425 104.594C42.4545 104.267 41.9925 103.819 41.6565 103.25C41.3205 102.671 41.1525 102.018 41.1525 101.29C41.1525 100.562 41.3205 99.9133 41.6565 99.344C41.9925 98.7653 42.4545 98.3173 43.0425 98C43.6398 97.6733 44.3165 97.51 45.0725 97.51C45.7445 97.51 46.3418 97.6453 46.8645 97.916C47.3965 98.1867 47.8071 98.5787 48.0965 99.092L47.0745 99.75C46.8411 99.3953 46.5518 99.1293 46.2065 98.952C45.8611 98.7747 45.4785 98.686 45.0585 98.686C44.5731 98.686 44.1345 98.7933 43.7425 99.008C43.3598 99.2227 43.0565 99.5307 42.8325 99.932C42.6178 100.324 42.5105 100.777 42.5105 101.29C42.5105 101.813 42.6178 102.275 42.8325 102.676C43.0565 103.068 43.3598 103.371 43.7425 103.586C44.1345 103.801 44.5731 103.908 45.0585 103.908C45.4785 103.908 45.8611 103.819 46.2065 103.642C46.5518 103.465 46.8411 103.199 47.0745 102.844L48.0965 103.488C47.8071 104.001 47.3965 104.398 46.8645 104.678C46.3418 104.949 45.7445 105.084 45.0725 105.084ZM49.7408 94.612H51.0848V105H49.7408V94.612ZM56.829 105.084C56.0916 105.084 55.429 104.921 54.841 104.594C54.253 104.267 53.791 103.819 53.455 103.25C53.1283 102.671 52.965 102.018 52.965 101.29C52.965 100.562 53.1283 99.9133 53.455 99.344C53.791 98.7653 54.253 98.3173 54.841 98C55.429 97.6733 56.0916 97.51 56.829 97.51C57.5663 97.51 58.2243 97.6733 58.803 98C59.391 98.3173 59.8483 98.7653 60.175 99.344C60.511 99.9133 60.679 100.562 60.679 101.29C60.679 102.018 60.511 102.671 60.175 103.25C59.8483 103.819 59.391 104.267 58.803 104.594C58.2243 104.921 57.5663 105.084 56.829 105.084ZM56.829 103.908C57.305 103.908 57.7296 103.801 58.103 103.586C58.4856 103.362 58.7843 103.054 58.999 102.662C59.2136 102.261 59.321 101.803 59.321 101.29C59.321 100.777 59.2136 100.324 58.999 99.932C58.7843 99.5307 58.4856 99.2227 58.103 99.008C57.7296 98.7933 57.305 98.686 56.829 98.686C56.353 98.686 55.9236 98.7933 55.541 99.008C55.1676 99.2227 54.869 99.5307 54.645 99.932C54.4303 100.324 54.323 100.777 54.323 101.29C54.323 101.803 54.4303 102.261 54.645 102.662C54.869 103.054 55.1676 103.362 55.541 103.586C55.9236 103.801 56.353 103.908 56.829 103.908ZM64.6657 105.084C64.059 105.084 63.4757 105.005 62.9157 104.846C62.3557 104.678 61.917 104.468 61.5997 104.216L62.1597 103.152C62.4863 103.385 62.883 103.572 63.3497 103.712C63.8163 103.852 64.2877 103.922 64.7637 103.922C65.9397 103.922 66.5277 103.586 66.5277 102.914C66.5277 102.69 66.4483 102.513 66.2897 102.382C66.131 102.251 65.9303 102.158 65.6877 102.102C65.4543 102.037 65.1183 101.967 64.6797 101.892C64.0823 101.799 63.5923 101.691 63.2097 101.57C62.8363 101.449 62.5143 101.243 62.2437 100.954C61.973 100.665 61.8377 100.259 61.8377 99.736C61.8377 99.064 62.1177 98.5273 62.6777 98.126C63.2377 97.7153 63.989 97.51 64.9317 97.51C65.4263 97.51 65.921 97.5707 66.4157 97.692C66.9103 97.8133 67.3163 97.9767 67.6337 98.182L67.0597 99.246C66.453 98.854 65.739 98.658 64.9177 98.658C64.3483 98.658 63.9143 98.7513 63.6157 98.938C63.317 99.1247 63.1677 99.372 63.1677 99.68C63.1677 99.9227 63.2517 100.114 63.4197 100.254C63.5877 100.394 63.793 100.497 64.0357 100.562C64.2877 100.627 64.6377 100.702 65.0857 100.786C65.683 100.889 66.1637 101.001 66.5277 101.122C66.901 101.234 67.2183 101.43 67.4797 101.71C67.741 101.99 67.8717 102.382 67.8717 102.886C67.8717 103.558 67.5823 104.095 67.0037 104.496C66.4343 104.888 65.655 105.084 64.6657 105.084ZM76.2573 101.332C76.2573 101.435 76.248 101.57 76.2293 101.738H70.2093C70.2933 102.391 70.578 102.919 71.0633 103.32C71.558 103.712 72.1693 103.908 72.8973 103.908C73.784 103.908 74.498 103.609 75.0393 103.012L75.7813 103.88C75.4453 104.272 75.0253 104.571 74.5213 104.776C74.0267 104.981 73.4713 105.084 72.8553 105.084C72.0713 105.084 71.376 104.925 70.7693 104.608C70.1627 104.281 69.6913 103.829 69.3553 103.25C69.0287 102.671 68.8653 102.018 68.8653 101.29C68.8653 100.571 69.024 99.9227 69.3413 99.344C69.668 98.7653 70.1113 98.3173 70.6713 98C71.2407 97.6733 71.88 97.51 72.5893 97.51C73.2987 97.51 73.9287 97.6733 74.4793 98C75.0393 98.3173 75.4733 98.7653 75.7813 99.344C76.0987 99.9227 76.2573 100.585 76.2573 101.332ZM72.5893 98.644C71.9453 98.644 71.404 98.84 70.9653 99.232C70.536 99.624 70.284 100.137 70.2093 100.772H74.9693C74.8947 100.147 74.638 99.638 74.1993 99.246C73.77 98.8447 73.2333 98.644 72.5893 98.644ZM5.446 121.566C5.25 121.734 5.00733 121.865 4.718 121.958C4.42867 122.042 4.13 122.084 3.822 122.084C3.07533 122.084 2.49667 121.883 2.086 121.482C1.67533 121.081 1.47 120.507 1.47 119.76V115.686H0.21V114.58H1.47V112.956H2.814V114.58H4.942V115.686H2.814V119.704C2.814 120.105 2.912 120.413 3.108 120.628C3.31333 120.843 3.60267 120.95 3.976 120.95C4.38667 120.95 4.73667 120.833 5.026 120.6L5.446 121.566ZM11.0329 114.51C11.9755 114.51 12.7222 114.785 13.2729 115.336C13.8329 115.877 14.1129 116.675 14.1129 117.73V122H12.7689V117.884C12.7689 117.165 12.5962 116.624 12.2509 116.26C11.9055 115.896 11.4109 115.714 10.7669 115.714C10.0389 115.714 9.46488 115.929 9.04488 116.358C8.62488 116.778 8.41488 117.385 8.41488 118.178V122H7.07088V111.612H8.41488V115.63C8.69488 115.275 9.05888 115 9.50688 114.804C9.96421 114.608 10.4729 114.51 11.0329 114.51ZM23.3472 118.332C23.3472 118.435 23.3379 118.57 23.3192 118.738H17.2992C17.3832 119.391 17.6679 119.919 18.1532 120.32C18.6479 120.712 19.2592 120.908 19.9872 120.908C20.8739 120.908 21.5879 120.609 22.1292 120.012L22.8712 120.88C22.5352 121.272 22.1152 121.571 21.6112 121.776C21.1165 121.981 20.5612 122.084 19.9452 122.084C19.1612 122.084 18.4659 121.925 17.8592 121.608C17.2525 121.281 16.7812 120.829 16.4452 120.25C16.1185 119.671 15.9552 119.018 15.9552 118.29C15.9552 117.571 16.1139 116.923 16.4312 116.344C16.7579 115.765 17.2012 115.317 17.7612 115C18.3305 114.673 18.9699 114.51 19.6792 114.51C20.3885 114.51 21.0185 114.673 21.5692 115C22.1292 115.317 22.5632 115.765 22.8712 116.344C23.1885 116.923 23.3472 117.585 23.3472 118.332ZM19.6792 115.644C19.0352 115.644 18.4939 115.84 18.0552 116.232C17.6259 116.624 17.3739 117.137 17.2992 117.772H22.0592C21.9845 117.147 21.7279 116.638 21.2892 116.246C20.8599 115.845 20.3232 115.644 19.6792 115.644ZM28.9732 114.58H30.3172V122H28.9732V114.58ZM29.6452 113.152C29.3839 113.152 29.1646 113.068 28.9872 112.9C28.8192 112.732 28.7352 112.527 28.7352 112.284C28.7352 112.041 28.8192 111.836 28.9872 111.668C29.1646 111.491 29.3839 111.402 29.6452 111.402C29.9066 111.402 30.1212 111.486 30.2892 111.654C30.4666 111.813 30.5552 112.013 30.5552 112.256C30.5552 112.508 30.4666 112.723 30.2892 112.9C30.1212 113.068 29.9066 113.152 29.6452 113.152ZM36.8454 114.51C37.788 114.51 38.5347 114.785 39.0854 115.336C39.6454 115.877 39.9254 116.675 39.9254 117.73V122H38.5814V117.884C38.5814 117.165 38.4087 116.624 38.0634 116.26C37.718 115.896 37.2234 115.714 36.5794 115.714C35.8514 115.714 35.2774 115.929 34.8574 116.358C34.4374 116.778 34.2274 117.385 34.2274 118.178V122H32.8834V114.58H34.1714V115.7C34.442 115.317 34.806 115.023 35.2634 114.818C35.73 114.613 36.2574 114.51 36.8454 114.51ZM45.1287 112.634C44.326 112.634 43.9247 113.068 43.9247 113.936V114.58H46.0807V115.686H43.9527V122H42.6087V115.686H41.3487V114.58H42.6087V113.922C42.6087 113.185 42.8233 112.601 43.2527 112.172C43.682 111.743 44.284 111.528 45.0587 111.528C45.3573 111.528 45.6373 111.565 45.8987 111.64C46.16 111.715 46.384 111.822 46.5707 111.962L46.1647 112.984C45.8567 112.751 45.5113 112.634 45.1287 112.634ZM50.4168 122.084C49.6795 122.084 49.0168 121.921 48.4288 121.594C47.8408 121.267 47.3788 120.819 47.0428 120.25C46.7162 119.671 46.5528 119.018 46.5528 118.29C46.5528 117.562 46.7162 116.913 47.0428 116.344C47.3788 115.765 47.8408 115.317 48.4288 115C49.0168 114.673 49.6795 114.51 50.4168 114.51C51.1542 114.51 51.8122 114.673 52.3908 115C52.9788 115.317 53.4362 115.765 53.7628 116.344C54.0988 116.913 54.2668 117.562 54.2668 118.29C54.2668 119.018 54.0988 119.671 53.7628 120.25C53.4362 120.819 52.9788 121.267 52.3908 121.594C51.8122 121.921 51.1542 122.084 50.4168 122.084ZM50.4168 120.908C50.8928 120.908 51.3175 120.801 51.6908 120.586C52.0735 120.362 52.3722 120.054 52.5868 119.662C52.8015 119.261 52.9088 118.803 52.9088 118.29C52.9088 117.777 52.8015 117.324 52.5868 116.932C52.3722 116.531 52.0735 116.223 51.6908 116.008C51.3175 115.793 50.8928 115.686 50.4168 115.686C49.9408 115.686 49.5115 115.793 49.1288 116.008C48.7555 116.223 48.4568 116.531 48.2328 116.932C48.0182 117.324 47.9108 117.777 47.9108 118.29C47.9108 118.803 48.0182 119.261 48.2328 119.662C48.4568 120.054 48.7555 120.362 49.1288 120.586C49.5115 120.801 49.9408 120.908 50.4168 120.908ZM57.4136 115.826C57.6469 115.397 57.9922 115.07 58.4496 114.846C58.9069 114.622 59.4622 114.51 60.1156 114.51V115.812C60.0409 115.803 59.9382 115.798 59.8076 115.798C59.0796 115.798 58.5056 116.017 58.0856 116.456C57.6749 116.885 57.4696 117.501 57.4696 118.304V122H56.1256V114.58H57.4136V115.826ZM71.054 114.51C71.9874 114.51 72.7247 114.781 73.266 115.322C73.8167 115.863 74.092 116.666 74.092 117.73V122H72.748V117.884C72.748 117.165 72.58 116.624 72.244 116.26C71.9174 115.896 71.446 115.714 70.83 115.714C70.1487 115.714 69.6074 115.929 69.206 116.358C68.8047 116.778 68.604 117.385 68.604 118.178V122H67.26V117.884C67.26 117.165 67.092 116.624 66.756 116.26C66.4294 115.896 65.958 115.714 65.342 115.714C64.6607 115.714 64.1194 115.929 63.718 116.358C63.3167 116.778 63.116 117.385 63.116 118.178V122H61.772V114.58H63.06V115.686C63.3307 115.303 63.6854 115.014 64.124 114.818C64.5627 114.613 65.062 114.51 65.622 114.51C66.2007 114.51 66.714 114.627 67.162 114.86C67.61 115.093 67.9554 115.434 68.198 115.882C68.478 115.453 68.8654 115.117 69.36 114.874C69.864 114.631 70.4287 114.51 71.054 114.51ZM79.267 114.51C80.2937 114.51 81.0777 114.762 81.619 115.266C82.1697 115.77 82.445 116.521 82.445 117.52V122H81.171V121.02C80.947 121.365 80.625 121.631 80.205 121.818C79.7943 121.995 79.3043 122.084 78.735 122.084C77.9043 122.084 77.237 121.883 76.733 121.482C76.2383 121.081 75.991 120.553 75.991 119.9C75.991 119.247 76.229 118.724 76.705 118.332C77.181 117.931 77.937 117.73 78.973 117.73H81.101V117.464C81.101 116.885 80.933 116.442 80.597 116.134C80.261 115.826 79.7663 115.672 79.113 115.672C78.6743 115.672 78.245 115.747 77.825 115.896C77.405 116.036 77.0503 116.227 76.761 116.47L76.201 115.462C76.5837 115.154 77.041 114.921 77.573 114.762C78.105 114.594 78.6697 114.51 79.267 114.51ZM78.959 121.048C79.4723 121.048 79.9157 120.936 80.289 120.712C80.6623 120.479 80.933 120.152 81.101 119.732V118.696H79.029C77.8903 118.696 77.321 119.079 77.321 119.844C77.321 120.217 77.4657 120.511 77.755 120.726C78.0443 120.941 78.4457 121.048 78.959 121.048ZM89.1042 121.566C88.9082 121.734 88.6655 121.865 88.3762 121.958C88.0869 122.042 87.7882 122.084 87.4802 122.084C86.7335 122.084 86.1549 121.883 85.7442 121.482C85.3335 121.081 85.1282 120.507 85.1282 119.76V115.686H83.8682V114.58H85.1282V112.956H86.4722V114.58H88.6002V115.686H86.4722V119.704C86.4722 120.105 86.5702 120.413 86.7662 120.628C86.9715 120.843 87.2609 120.95 87.6342 120.95C88.0449 120.95 88.3949 120.833 88.6842 120.6L89.1042 121.566ZM90.7291 114.58H92.0731V122H90.7291V114.58ZM91.4011 113.152C91.1397 113.152 90.9204 113.068 90.7431 112.9C90.5751 112.732 90.4911 112.527 90.4911 112.284C90.4911 112.041 90.5751 111.836 90.7431 111.668C90.9204 111.491 91.1397 111.402 91.4011 111.402C91.6624 111.402 91.8771 111.486 92.0451 111.654C92.2224 111.813 92.3111 112.013 92.3111 112.256C92.3111 112.508 92.2224 112.723 92.0451 112.9C91.8771 113.068 91.6624 113.152 91.4011 113.152ZM97.8172 122.084C97.0799 122.084 96.4172 121.921 95.8292 121.594C95.2412 121.267 94.7792 120.819 94.4432 120.25C94.1166 119.671 93.9532 119.018 93.9532 118.29C93.9532 117.562 94.1166 116.913 94.4432 116.344C94.7792 115.765 95.2412 115.317 95.8292 115C96.4172 114.673 97.0799 114.51 97.8172 114.51C98.5546 114.51 99.2126 114.673 99.7912 115C100.379 115.317 100.837 115.765 101.163 116.344C101.499 116.913 101.667 117.562 101.667 118.29C101.667 119.018 101.499 119.671 101.163 120.25C100.837 120.819 100.379 121.267 99.7912 121.594C99.2126 121.921 98.5546 122.084 97.8172 122.084ZM97.8172 120.908C98.2932 120.908 98.7179 120.801 99.0912 120.586C99.4739 120.362 99.7726 120.054 99.9872 119.662C100.202 119.261 100.309 118.803 100.309 118.29C100.309 117.777 100.202 117.324 99.9872 116.932C99.7726 116.531 99.4739 116.223 99.0912 116.008C98.7179 115.793 98.2932 115.686 97.8172 115.686C97.3412 115.686 96.9119 115.793 96.5292 116.008C96.1559 116.223 95.8572 116.531 95.6332 116.932C95.4186 117.324 95.3112 117.777 95.3112 118.29C95.3112 118.803 95.4186 119.261 95.6332 119.662C95.8572 120.054 96.1559 120.362 96.5292 120.586C96.9119 120.801 97.3412 120.908 97.8172 120.908ZM107.488 114.51C108.431 114.51 109.177 114.785 109.728 115.336C110.288 115.877 110.568 116.675 110.568 117.73V122H109.224V117.884C109.224 117.165 109.051 116.624 108.706 116.26C108.361 115.896 107.866 115.714 107.222 115.714C106.494 115.714 105.92 115.929 105.5 116.358C105.08 116.778 104.87 117.385 104.87 118.178V122H103.526V114.58H104.814V115.7C105.085 115.317 105.449 115.023 105.906 114.818C106.373 114.613 106.9 114.51 107.488 114.51Z" fill="#5DAFFD"/>
<path d="M141.292 95.2C142.561 95.2 143.56 95.5033 144.288 96.11C145.016 96.7167 145.38 97.552 145.38 98.616C145.38 99.68 145.016 100.515 144.288 101.122C143.56 101.729 142.561 102.032 141.292 102.032H138.87V105H137.47V95.2H141.292ZM141.25 100.814C142.137 100.814 142.813 100.627 143.28 100.254C143.747 99.8713 143.98 99.3253 143.98 98.616C143.98 97.9067 143.747 97.3653 143.28 96.992C142.813 96.6093 142.137 96.418 141.25 96.418H138.87V100.814H141.25ZM147.378 94.612H148.722V105H147.378V94.612ZM153.99 97.51C155.016 97.51 155.8 97.762 156.342 98.266C156.892 98.77 157.168 99.5213 157.168 100.52V105H155.894V104.02C155.67 104.365 155.348 104.631 154.928 104.818C154.517 104.995 154.027 105.084 153.458 105.084C152.627 105.084 151.96 104.883 151.456 104.482C150.961 104.081 150.714 103.553 150.714 102.9C150.714 102.247 150.952 101.724 151.428 101.332C151.904 100.931 152.66 100.73 153.696 100.73H155.824V100.464C155.824 99.8853 155.656 99.442 155.32 99.134C154.984 98.826 154.489 98.672 153.836 98.672C153.397 98.672 152.968 98.7467 152.548 98.896C152.128 99.036 151.773 99.2273 151.484 99.47L150.924 98.462C151.306 98.154 151.764 97.9207 152.296 97.762C152.828 97.594 153.392 97.51 153.99 97.51ZM153.682 104.048C154.195 104.048 154.638 103.936 155.012 103.712C155.385 103.479 155.656 103.152 155.824 102.732V101.696H153.752C152.613 101.696 152.044 102.079 152.044 102.844C152.044 103.217 152.188 103.511 152.478 103.726C152.767 103.941 153.168 104.048 153.682 104.048ZM163.827 104.566C163.631 104.734 163.388 104.865 163.099 104.958C162.81 105.042 162.511 105.084 162.203 105.084C161.456 105.084 160.878 104.883 160.467 104.482C160.056 104.081 159.851 103.507 159.851 102.76V98.686H158.591V97.58H159.851V95.956H161.195V97.58H163.323V98.686H161.195V102.704C161.195 103.105 161.293 103.413 161.489 103.628C161.694 103.843 161.984 103.95 162.357 103.95C162.768 103.95 163.118 103.833 163.407 103.6L163.827 104.566ZM168.168 95.634C167.365 95.634 166.964 96.068 166.964 96.936V97.58H169.12V98.686H166.992V105H165.648V98.686H164.388V97.58H165.648V96.922C165.648 96.1847 165.862 95.6013 166.292 95.172C166.721 94.7427 167.323 94.528 168.098 94.528C168.396 94.528 168.676 94.5653 168.938 94.64C169.199 94.7147 169.423 94.822 169.61 94.962L169.204 95.984C168.896 95.7507 168.55 95.634 168.168 95.634ZM173.456 105.084C172.719 105.084 172.056 104.921 171.468 104.594C170.88 104.267 170.418 103.819 170.082 103.25C169.755 102.671 169.592 102.018 169.592 101.29C169.592 100.562 169.755 99.9133 170.082 99.344C170.418 98.7653 170.88 98.3173 171.468 98C172.056 97.6733 172.719 97.51 173.456 97.51C174.193 97.51 174.851 97.6733 175.43 98C176.018 98.3173 176.475 98.7653 176.802 99.344C177.138 99.9133 177.306 100.562 177.306 101.29C177.306 102.018 177.138 102.671 176.802 103.25C176.475 103.819 176.018 104.267 175.43 104.594C174.851 104.921 174.193 105.084 173.456 105.084ZM173.456 103.908C173.932 103.908 174.357 103.801 174.73 103.586C175.113 103.362 175.411 103.054 175.626 102.662C175.841 102.261 175.948 101.803 175.948 101.29C175.948 100.777 175.841 100.324 175.626 99.932C175.411 99.5307 175.113 99.2227 174.73 99.008C174.357 98.7933 173.932 98.686 173.456 98.686C172.98 98.686 172.551 98.7933 172.168 99.008C171.795 99.2227 171.496 99.5307 171.272 99.932C171.057 100.324 170.95 100.777 170.95 101.29C170.95 101.803 171.057 102.261 171.272 102.662C171.496 103.054 171.795 103.362 172.168 103.586C172.551 103.801 172.98 103.908 173.456 103.908ZM180.453 98.826C180.686 98.3967 181.031 98.07 181.489 97.846C181.946 97.622 182.501 97.51 183.155 97.51V98.812C183.08 98.8027 182.977 98.798 182.847 98.798C182.119 98.798 181.545 99.0173 181.125 99.456C180.714 99.8853 180.509 100.501 180.509 101.304V105H179.165V97.58H180.453V98.826ZM194.093 97.51C195.026 97.51 195.764 97.7807 196.305 98.322C196.856 98.8633 197.131 99.666 197.131 100.73V105H195.787V100.884C195.787 100.165 195.619 99.624 195.283 99.26C194.956 98.896 194.485 98.714 193.869 98.714C193.188 98.714 192.646 98.9287 192.245 99.358C191.844 99.778 191.643 100.385 191.643 101.178V105H190.299V100.884C190.299 100.165 190.131 99.624 189.795 99.26C189.468 98.896 188.997 98.714 188.381 98.714C187.7 98.714 187.158 98.9287 186.757 99.358C186.356 99.778 186.155 100.385 186.155 101.178V105H184.811V97.58H186.099V98.686C186.37 98.3033 186.724 98.014 187.163 97.818C187.602 97.6127 188.101 97.51 188.661 97.51C189.24 97.51 189.753 97.6267 190.201 97.86C190.649 98.0933 190.994 98.434 191.237 98.882C191.517 98.4527 191.904 98.1167 192.399 97.874C192.903 97.6313 193.468 97.51 194.093 97.51ZM139.976 114.51C141.003 114.51 141.787 114.762 142.328 115.266C142.879 115.77 143.154 116.521 143.154 117.52V122H141.88V121.02C141.656 121.365 141.334 121.631 140.914 121.818C140.503 121.995 140.013 122.084 139.444 122.084C138.613 122.084 137.946 121.883 137.442 121.482C136.947 121.081 136.7 120.553 136.7 119.9C136.7 119.247 136.938 118.724 137.414 118.332C137.89 117.931 138.646 117.73 139.682 117.73H141.81V117.464C141.81 116.885 141.642 116.442 141.306 116.134C140.97 115.826 140.475 115.672 139.822 115.672C139.383 115.672 138.954 115.747 138.534 115.896C138.114 116.036 137.759 116.227 137.47 116.47L136.91 115.462C137.293 115.154 137.75 114.921 138.282 114.762C138.814 114.594 139.379 114.51 139.976 114.51ZM139.668 121.048C140.181 121.048 140.625 120.936 140.998 120.712C141.371 120.479 141.642 120.152 141.81 119.732V118.696H139.738C138.599 118.696 138.03 119.079 138.03 119.844C138.03 120.217 138.175 120.511 138.464 120.726C138.753 120.941 139.155 121.048 139.668 121.048ZM152.557 114.58V122H151.283V120.88C151.013 121.263 150.653 121.561 150.205 121.776C149.767 121.981 149.286 122.084 148.763 122.084C147.774 122.084 146.995 121.813 146.425 121.272C145.856 120.721 145.571 119.914 145.571 118.85V114.58H146.915V118.696C146.915 119.415 147.088 119.961 147.433 120.334C147.779 120.698 148.273 120.88 148.917 120.88C149.627 120.88 150.187 120.665 150.597 120.236C151.008 119.807 151.213 119.2 151.213 118.416V114.58H152.557ZM162.116 111.612V122H160.828V120.824C160.529 121.235 160.151 121.547 159.694 121.762C159.236 121.977 158.732 122.084 158.182 122.084C157.463 122.084 156.819 121.925 156.25 121.608C155.68 121.291 155.232 120.847 154.906 120.278C154.588 119.699 154.43 119.037 154.43 118.29C154.43 117.543 154.588 116.885 154.906 116.316C155.232 115.747 155.68 115.303 156.25 114.986C156.819 114.669 157.463 114.51 158.182 114.51C158.714 114.51 159.204 114.613 159.652 114.818C160.1 115.014 160.473 115.308 160.772 115.7V111.612H162.116ZM158.294 120.908C158.76 120.908 159.185 120.801 159.568 120.586C159.95 120.362 160.249 120.054 160.464 119.662C160.678 119.261 160.786 118.803 160.786 118.29C160.786 117.777 160.678 117.324 160.464 116.932C160.249 116.531 159.95 116.223 159.568 116.008C159.185 115.793 158.76 115.686 158.294 115.686C157.818 115.686 157.388 115.793 157.006 116.008C156.632 116.223 156.334 116.531 156.11 116.932C155.895 117.324 155.788 117.777 155.788 118.29C155.788 118.803 155.895 119.261 156.11 119.662C156.334 120.054 156.632 120.362 157.006 120.586C157.388 120.801 157.818 120.908 158.294 120.908ZM164.659 114.58H166.003V122H164.659V114.58ZM165.331 113.152C165.069 113.152 164.85 113.068 164.673 112.9C164.505 112.732 164.421 112.527 164.421 112.284C164.421 112.041 164.505 111.836 164.673 111.668C164.85 111.491 165.069 111.402 165.331 111.402C165.592 111.402 165.807 111.486 165.975 111.654C166.152 111.813 166.241 112.013 166.241 112.256C166.241 112.508 166.152 112.723 165.975 112.9C165.807 113.068 165.592 113.152 165.331 113.152ZM172.741 121.566C172.545 121.734 172.302 121.865 172.013 121.958C171.724 122.042 171.425 122.084 171.117 122.084C170.37 122.084 169.792 121.883 169.381 121.482C168.97 121.081 168.765 120.507 168.765 119.76V115.686H167.505V114.58H168.765V112.956H170.109V114.58H172.237V115.686H170.109V119.704C170.109 120.105 170.207 120.413 170.403 120.628C170.608 120.843 170.898 120.95 171.271 120.95C171.682 120.95 172.032 120.833 172.321 120.6L172.741 121.566Z" fill="#5DAFFD"/>
<path d="M416.064 99.918C416.633 100.077 417.081 100.366 417.408 100.786C417.735 101.197 417.898 101.719 417.898 102.354C417.898 103.203 417.576 103.857 416.932 104.314C416.297 104.771 415.369 105 414.146 105H409.47V95.2H413.866C414.986 95.2 415.849 95.424 416.456 95.872C417.072 96.32 417.38 96.9407 417.38 97.734C417.38 98.2473 417.259 98.6907 417.016 99.064C416.783 99.4373 416.465 99.722 416.064 99.918ZM410.87 96.334V99.47H413.74C414.459 99.47 415.009 99.3393 415.392 99.078C415.784 98.8073 415.98 98.4153 415.98 97.902C415.98 97.3887 415.784 97.0013 415.392 96.74C415.009 96.4693 414.459 96.334 413.74 96.334H410.87ZM414.09 103.866C414.883 103.866 415.481 103.735 415.882 103.474C416.283 103.213 416.484 102.802 416.484 102.242C416.484 101.15 415.686 100.604 414.09 100.604H410.87V103.866H414.09ZM426.576 101.332C426.576 101.435 426.566 101.57 426.548 101.738H420.528C420.612 102.391 420.896 102.919 421.382 103.32C421.876 103.712 422.488 103.908 423.216 103.908C424.102 103.908 424.816 103.609 425.358 103.012L426.1 103.88C425.764 104.272 425.344 104.571 424.84 104.776C424.345 104.981 423.79 105.084 423.174 105.084C422.39 105.084 421.694 104.925 421.088 104.608C420.481 104.281 420.01 103.829 419.674 103.25C419.347 102.671 419.184 102.018 419.184 101.29C419.184 100.571 419.342 99.9227 419.66 99.344C419.986 98.7653 420.43 98.3173 420.99 98C421.559 97.6733 422.198 97.51 422.908 97.51C423.617 97.51 424.247 97.6733 424.798 98C425.358 98.3173 425.792 98.7653 426.1 99.344C426.417 99.9227 426.576 100.585 426.576 101.332ZM422.908 98.644C422.264 98.644 421.722 98.84 421.284 99.232C420.854 99.624 420.602 100.137 420.528 100.772H425.288C425.213 100.147 424.956 99.638 424.518 99.246C424.088 98.8447 423.552 98.644 422.908 98.644ZM435.54 97.58V103.992C435.54 105.289 435.218 106.246 434.574 106.862C433.93 107.487 432.969 107.8 431.69 107.8C430.99 107.8 430.323 107.702 429.688 107.506C429.053 107.319 428.54 107.049 428.148 106.694L428.792 105.658C429.137 105.957 429.562 106.19 430.066 106.358C430.579 106.535 431.107 106.624 431.648 106.624C432.516 106.624 433.155 106.419 433.566 106.008C433.986 105.597 434.196 104.972 434.196 104.132V103.544C433.879 103.927 433.487 104.216 433.02 104.412C432.563 104.599 432.063 104.692 431.522 104.692C430.813 104.692 430.169 104.543 429.59 104.244C429.021 103.936 428.573 103.511 428.246 102.97C427.919 102.419 427.756 101.794 427.756 101.094C427.756 100.394 427.919 99.7733 428.246 99.232C428.573 98.6813 429.021 98.2567 429.59 97.958C430.169 97.6593 430.813 97.51 431.522 97.51C432.082 97.51 432.6 97.6127 433.076 97.818C433.561 98.0233 433.958 98.3267 434.266 98.728V97.58H435.54ZM431.676 103.516C432.161 103.516 432.595 103.413 432.978 103.208C433.37 103.003 433.673 102.718 433.888 102.354C434.112 101.981 434.224 101.561 434.224 101.094C434.224 100.375 433.986 99.7967 433.51 99.358C433.034 98.91 432.423 98.686 431.676 98.686C430.92 98.686 430.304 98.91 429.828 99.358C429.352 99.7967 429.114 100.375 429.114 101.094C429.114 101.561 429.221 101.981 429.436 102.354C429.66 102.718 429.963 103.003 430.346 103.208C430.738 103.413 431.181 103.516 431.676 103.516ZM440.81 97.51C441.837 97.51 442.621 97.762 443.162 98.266C443.713 98.77 443.988 99.5213 443.988 100.52V105H442.714V104.02C442.49 104.365 442.168 104.631 441.748 104.818C441.337 104.995 440.847 105.084 440.278 105.084C439.447 105.084 438.78 104.883 438.276 104.482C437.781 104.081 437.534 103.553 437.534 102.9C437.534 102.247 437.772 101.724 438.248 101.332C438.724 100.931 439.48 100.73 440.516 100.73H442.644V100.464C442.644 99.8853 442.476 99.442 442.14 99.134C441.804 98.826 441.309 98.672 440.656 98.672C440.217 98.672 439.788 98.7467 439.368 98.896C438.948 99.036 438.593 99.2273 438.304 99.47L437.744 98.462C438.127 98.154 438.584 97.9207 439.116 97.762C439.648 97.594 440.213 97.51 440.81 97.51ZM440.502 104.048C441.015 104.048 441.459 103.936 441.832 103.712C442.205 103.479 442.476 103.152 442.644 102.732V101.696H440.572C439.433 101.696 438.864 102.079 438.864 102.844C438.864 103.217 439.009 103.511 439.298 103.726C439.587 103.941 439.989 104.048 440.502 104.048ZM450.437 97.51C451.38 97.51 452.127 97.7853 452.677 98.336C453.237 98.8773 453.517 99.6753 453.517 100.73V105H452.173V100.884C452.173 100.165 452.001 99.624 451.655 99.26C451.31 98.896 450.815 98.714 450.171 98.714C449.443 98.714 448.869 98.9287 448.449 99.358C448.029 99.778 447.819 100.385 447.819 101.178V105H446.475V97.58H447.763V98.7C448.034 98.3173 448.398 98.0233 448.855 97.818C449.322 97.6127 449.849 97.51 450.437 97.51ZM463.936 104.566C463.74 104.734 463.498 104.865 463.208 104.958C462.919 105.042 462.62 105.084 462.312 105.084C461.566 105.084 460.987 104.883 460.576 104.482C460.166 104.081 459.96 103.507 459.96 102.76V98.686H458.7V97.58H459.96V95.956H461.304V97.58H463.432V98.686H461.304V102.704C461.304 103.105 461.402 103.413 461.598 103.628C461.804 103.843 462.093 103.95 462.466 103.95C462.877 103.95 463.227 103.833 463.516 103.6L463.936 104.566ZM468.493 105.084C467.756 105.084 467.093 104.921 466.505 104.594C465.917 104.267 465.455 103.819 465.119 103.25C464.792 102.671 464.629 102.018 464.629 101.29C464.629 100.562 464.792 99.9133 465.119 99.344C465.455 98.7653 465.917 98.3173 466.505 98C467.093 97.6733 467.756 97.51 468.493 97.51C469.23 97.51 469.888 97.6733 470.467 98C471.055 98.3173 471.512 98.7653 471.839 99.344C472.175 99.9133 472.343 100.562 472.343 101.29C472.343 102.018 472.175 102.671 471.839 103.25C471.512 103.819 471.055 104.267 470.467 104.594C469.888 104.921 469.23 105.084 468.493 105.084ZM468.493 103.908C468.969 103.908 469.394 103.801 469.767 103.586C470.15 103.362 470.448 103.054 470.663 102.662C470.878 102.261 470.985 101.803 470.985 101.29C470.985 100.777 470.878 100.324 470.663 99.932C470.448 99.5307 470.15 99.2227 469.767 99.008C469.394 98.7933 468.969 98.686 468.493 98.686C468.017 98.686 467.588 98.7933 467.205 99.008C466.832 99.2227 466.533 99.5307 466.309 99.932C466.094 100.324 465.987 100.777 465.987 101.29C465.987 101.803 466.094 102.261 466.309 102.662C466.533 103.054 466.832 103.362 467.205 103.586C467.588 103.801 468.017 103.908 468.493 103.908ZM410.562 115.826C410.795 115.397 411.141 115.07 411.598 114.846C412.055 114.622 412.611 114.51 413.264 114.51V115.812C413.189 115.803 413.087 115.798 412.956 115.798C412.228 115.798 411.654 116.017 411.234 116.456C410.823 116.885 410.618 117.501 410.618 118.304V122H409.274V114.58H410.562V115.826ZM417.609 114.51C418.635 114.51 419.419 114.762 419.961 115.266C420.511 115.77 420.787 116.521 420.787 117.52V122H419.513V121.02C419.289 121.365 418.967 121.631 418.547 121.818C418.136 121.995 417.646 122.084 417.077 122.084C416.246 122.084 415.579 121.883 415.075 121.482C414.58 121.081 414.333 120.553 414.333 119.9C414.333 119.247 414.571 118.724 415.047 118.332C415.523 117.931 416.279 117.73 417.315 117.73H419.443V117.464C419.443 116.885 419.275 116.442 418.939 116.134C418.603 115.826 418.108 115.672 417.455 115.672C417.016 115.672 416.587 115.747 416.167 115.896C415.747 116.036 415.392 116.227 415.103 116.47L414.543 115.462C414.925 115.154 415.383 114.921 415.915 114.762C416.447 114.594 417.011 114.51 417.609 114.51ZM417.301 121.048C417.814 121.048 418.257 120.936 418.631 120.712C419.004 120.479 419.275 120.152 419.443 119.732V118.696H417.371C416.232 118.696 415.663 119.079 415.663 119.844C415.663 120.217 415.807 120.511 416.097 120.726C416.386 120.941 416.787 121.048 417.301 121.048ZM423.274 114.58H424.618V122H423.274V114.58ZM423.946 113.152C423.685 113.152 423.465 113.068 423.288 112.9C423.12 112.732 423.036 112.527 423.036 112.284C423.036 112.041 423.12 111.836 423.288 111.668C423.465 111.491 423.685 111.402 423.946 111.402C424.207 111.402 424.422 111.486 424.59 111.654C424.767 111.813 424.856 112.013 424.856 112.256C424.856 112.508 424.767 112.723 424.59 112.9C424.422 113.068 424.207 113.152 423.946 113.152ZM429.312 122.084C428.705 122.084 428.122 122.005 427.562 121.846C427.002 121.678 426.563 121.468 426.246 121.216L426.806 120.152C427.133 120.385 427.529 120.572 427.996 120.712C428.463 120.852 428.934 120.922 429.41 120.922C430.586 120.922 431.174 120.586 431.174 119.914C431.174 119.69 431.095 119.513 430.936 119.382C430.777 119.251 430.577 119.158 430.334 119.102C430.101 119.037 429.765 118.967 429.326 118.892C428.729 118.799 428.239 118.691 427.856 118.57C427.483 118.449 427.161 118.243 426.89 117.954C426.619 117.665 426.484 117.259 426.484 116.736C426.484 116.064 426.764 115.527 427.324 115.126C427.884 114.715 428.635 114.51 429.578 114.51C430.073 114.51 430.567 114.571 431.062 114.692C431.557 114.813 431.963 114.977 432.28 115.182L431.706 116.246C431.099 115.854 430.385 115.658 429.564 115.658C428.995 115.658 428.561 115.751 428.262 115.938C427.963 116.125 427.814 116.372 427.814 116.68C427.814 116.923 427.898 117.114 428.066 117.254C428.234 117.394 428.439 117.497 428.682 117.562C428.934 117.627 429.284 117.702 429.732 117.786C430.329 117.889 430.81 118.001 431.174 118.122C431.547 118.234 431.865 118.43 432.126 118.71C432.387 118.99 432.518 119.382 432.518 119.886C432.518 120.558 432.229 121.095 431.65 121.496C431.081 121.888 430.301 122.084 429.312 122.084ZM440.904 118.332C440.904 118.435 440.894 118.57 440.876 118.738H434.856C434.94 119.391 435.224 119.919 435.71 120.32C436.204 120.712 436.816 120.908 437.544 120.908C438.43 120.908 439.144 120.609 439.686 120.012L440.428 120.88C440.092 121.272 439.672 121.571 439.168 121.776C438.673 121.981 438.118 122.084 437.502 122.084C436.718 122.084 436.022 121.925 435.416 121.608C434.809 121.281 434.338 120.829 434.002 120.25C433.675 119.671 433.512 119.018 433.512 118.29C433.512 117.571 433.67 116.923 433.988 116.344C434.314 115.765 434.758 115.317 435.318 115C435.887 114.673 436.526 114.51 437.236 114.51C437.945 114.51 438.575 114.673 439.126 115C439.686 115.317 440.12 115.765 440.428 116.344C440.745 116.923 440.904 117.585 440.904 118.332ZM437.236 115.644C436.592 115.644 436.05 115.84 435.612 116.232C435.182 116.624 434.93 117.137 434.856 117.772H439.616C439.541 117.147 439.284 116.638 438.846 116.246C438.416 115.845 437.88 115.644 437.236 115.644Z" fill="#5DAFFD"/>
<path d="M552.582 103.782V105H545.47V95.2H552.386V96.418H546.87V99.428H551.784V100.618H546.87V103.782H552.582ZM558.615 97.51C559.558 97.51 560.304 97.7853 560.855 98.336C561.415 98.8773 561.695 99.6753 561.695 100.73V105H560.351V100.884C560.351 100.165 560.178 99.624 559.833 99.26C559.488 98.896 558.993 98.714 558.349 98.714C557.621 98.714 557.047 98.9287 556.627 99.358C556.207 99.778 555.997 100.385 555.997 101.178V105H554.653V97.58H555.941V98.7C556.212 98.3173 556.576 98.0233 557.033 97.818C557.5 97.6127 558.027 97.51 558.615 97.51ZM571.223 94.612V105H569.935V103.824C569.637 104.235 569.259 104.547 568.801 104.762C568.344 104.977 567.84 105.084 567.289 105.084C566.571 105.084 565.927 104.925 565.357 104.608C564.788 104.291 564.34 103.847 564.013 103.278C563.696 102.699 563.537 102.037 563.537 101.29C563.537 100.543 563.696 99.8853 564.013 99.316C564.34 98.7467 564.788 98.3033 565.357 97.986C565.927 97.6687 566.571 97.51 567.289 97.51C567.821 97.51 568.311 97.6127 568.759 97.818C569.207 98.014 569.581 98.308 569.879 98.7V94.612H571.223ZM567.401 103.908C567.868 103.908 568.293 103.801 568.675 103.586C569.058 103.362 569.357 103.054 569.571 102.662C569.786 102.261 569.893 101.803 569.893 101.29C569.893 100.777 569.786 100.324 569.571 99.932C569.357 99.5307 569.058 99.2227 568.675 99.008C568.293 98.7933 567.868 98.686 567.401 98.686C566.925 98.686 566.496 98.7933 566.113 99.008C565.74 99.2227 565.441 99.5307 565.217 99.932C565.003 100.324 564.895 100.777 564.895 101.29C564.895 101.803 565.003 102.261 565.217 102.662C565.441 103.054 565.74 103.362 566.113 103.586C566.496 103.801 566.925 103.908 567.401 103.908ZM580.228 97.51C581.255 97.51 582.039 97.762 582.58 98.266C583.131 98.77 583.406 99.5213 583.406 100.52V105H582.132V104.02C581.908 104.365 581.586 104.631 581.166 104.818C580.755 104.995 580.265 105.084 579.696 105.084C578.865 105.084 578.198 104.883 577.694 104.482C577.199 104.081 576.952 103.553 576.952 102.9C576.952 102.247 577.19 101.724 577.666 101.332C578.142 100.931 578.898 100.73 579.934 100.73H582.062V100.464C582.062 99.8853 581.894 99.442 581.558 99.134C581.222 98.826 580.727 98.672 580.074 98.672C579.635 98.672 579.206 98.7467 578.786 98.896C578.366 99.036 578.011 99.2273 577.722 99.47L577.162 98.462C577.545 98.154 578.002 97.9207 578.534 97.762C579.066 97.594 579.631 97.51 580.228 97.51ZM579.92 104.048C580.433 104.048 580.877 103.936 581.25 103.712C581.623 103.479 581.894 103.152 582.062 102.732V101.696H579.99C578.851 101.696 578.282 102.079 578.282 102.844C578.282 103.217 578.427 103.511 578.716 103.726C579.005 103.941 579.407 104.048 579.92 104.048ZM589.855 97.51C590.798 97.51 591.544 97.7853 592.095 98.336C592.655 98.8773 592.935 99.6753 592.935 100.73V105H591.591V100.884C591.591 100.165 591.418 99.624 591.073 99.26C590.728 98.896 590.233 98.714 589.589 98.714C588.861 98.714 588.287 98.9287 587.867 99.358C587.447 99.778 587.237 100.385 587.237 101.178V105H585.893V97.58H587.181V98.7C587.452 98.3173 587.816 98.0233 588.273 97.818C588.74 97.6127 589.267 97.51 589.855 97.51ZM602.463 94.612V105H601.175V103.824C600.877 104.235 600.499 104.547 600.041 104.762C599.584 104.977 599.08 105.084 598.529 105.084C597.811 105.084 597.167 104.925 596.597 104.608C596.028 104.291 595.58 103.847 595.253 103.278C594.936 102.699 594.777 102.037 594.777 101.29C594.777 100.543 594.936 99.8853 595.253 99.316C595.58 98.7467 596.028 98.3033 596.597 97.986C597.167 97.6687 597.811 97.51 598.529 97.51C599.061 97.51 599.551 97.6127 599.999 97.818C600.447 98.014 600.821 98.308 601.119 98.7V94.612H602.463ZM598.641 103.908C599.108 103.908 599.533 103.801 599.915 103.586C600.298 103.362 600.597 103.054 600.811 102.662C601.026 102.261 601.133 101.803 601.133 101.29C601.133 100.777 601.026 100.324 600.811 99.932C600.597 99.5307 600.298 99.2227 599.915 99.008C599.533 98.7933 599.108 98.686 598.641 98.686C598.165 98.686 597.736 98.7933 597.353 99.008C596.98 99.2227 596.681 99.5307 596.457 99.932C596.243 100.324 596.135 100.777 596.135 101.29C596.135 101.803 596.243 102.261 596.457 102.662C596.681 103.054 596.98 103.362 597.353 103.586C597.736 103.801 598.165 103.908 598.641 103.908ZM546.562 115.826C546.795 115.397 547.141 115.07 547.598 114.846C548.055 114.622 548.611 114.51 549.264 114.51V115.812C549.189 115.803 549.087 115.798 548.956 115.798C548.228 115.798 547.654 116.017 547.234 116.456C546.823 116.885 546.618 117.501 546.618 118.304V122H545.274V114.58H546.562V115.826ZM557.558 118.332C557.558 118.435 557.549 118.57 557.53 118.738H551.51C551.594 119.391 551.879 119.919 552.364 120.32C552.859 120.712 553.47 120.908 554.198 120.908C555.085 120.908 555.799 120.609 556.34 120.012L557.082 120.88C556.746 121.272 556.326 121.571 555.822 121.776C555.327 121.981 554.772 122.084 554.156 122.084C553.372 122.084 552.677 121.925 552.07 121.608C551.463 121.281 550.992 120.829 550.656 120.25C550.329 119.671 550.166 119.018 550.166 118.29C550.166 117.571 550.325 116.923 550.642 116.344C550.969 115.765 551.412 115.317 551.972 115C552.541 114.673 553.181 114.51 553.89 114.51C554.599 114.51 555.229 114.673 555.78 115C556.34 115.317 556.774 115.765 557.082 116.344C557.399 116.923 557.558 117.585 557.558 118.332ZM553.89 115.644C553.246 115.644 552.705 115.84 552.266 116.232C551.837 116.624 551.585 117.137 551.51 117.772H556.27C556.195 117.147 555.939 116.638 555.5 116.246C555.071 115.845 554.534 115.644 553.89 115.644ZM561.921 114.51C562.948 114.51 563.732 114.762 564.273 115.266C564.824 115.77 565.099 116.521 565.099 117.52V122H563.825V121.02C563.601 121.365 563.279 121.631 562.859 121.818C562.449 121.995 561.959 122.084 561.389 122.084C560.559 122.084 559.891 121.883 559.387 121.482C558.893 121.081 558.645 120.553 558.645 119.9C558.645 119.247 558.883 118.724 559.359 118.332C559.835 117.931 560.591 117.73 561.627 117.73H563.755V117.464C563.755 116.885 563.587 116.442 563.251 116.134C562.915 115.826 562.421 115.672 561.767 115.672C561.329 115.672 560.899 115.747 560.479 115.896C560.059 116.036 559.705 116.227 559.415 116.47L558.855 115.462C559.238 115.154 559.695 114.921 560.227 114.762C560.759 114.594 561.324 114.51 561.921 114.51ZM561.613 121.048C562.127 121.048 562.57 120.936 562.943 120.712C563.317 120.479 563.587 120.152 563.755 119.732V118.696H561.683C560.545 118.696 559.975 119.079 559.975 119.844C559.975 120.217 560.12 120.511 560.409 120.726C560.699 120.941 561.1 121.048 561.613 121.048ZM571.521 114.51C572.239 114.51 572.883 114.669 573.453 114.986C574.022 115.303 574.465 115.747 574.783 116.316C575.109 116.885 575.273 117.543 575.273 118.29C575.273 119.037 575.109 119.699 574.783 120.278C574.465 120.847 574.022 121.291 573.453 121.608C572.883 121.925 572.239 122.084 571.521 122.084C570.989 122.084 570.499 121.981 570.051 121.776C569.612 121.571 569.239 121.272 568.931 120.88V124.716H567.587V114.58H568.875V115.756C569.173 115.345 569.551 115.037 570.008 114.832C570.466 114.617 570.97 114.51 571.521 114.51ZM571.409 120.908C571.885 120.908 572.309 120.801 572.683 120.586C573.065 120.362 573.364 120.054 573.579 119.662C573.803 119.261 573.915 118.803 573.915 118.29C573.915 117.777 573.803 117.324 573.579 116.932C573.364 116.531 573.065 116.223 572.683 116.008C572.309 115.793 571.885 115.686 571.409 115.686C570.942 115.686 570.517 115.798 570.135 116.022C569.761 116.237 569.463 116.54 569.239 116.932C569.024 117.324 568.917 117.777 568.917 118.29C568.917 118.803 569.024 119.261 569.239 119.662C569.453 120.054 569.752 120.362 570.135 120.586C570.517 120.801 570.942 120.908 571.409 120.908Z" fill="#5DAFFD"/>
<path d="M279.714 102.55H274.506L273.428 105H271.986L276.424 95.2H277.81L282.262 105H280.792L279.714 102.55ZM279.224 101.43L277.11 96.628L274.996 101.43H279.224ZM287.462 97.51C288.181 97.51 288.825 97.6687 289.394 97.986C289.963 98.3033 290.407 98.7467 290.724 99.316C291.051 99.8853 291.214 100.543 291.214 101.29C291.214 102.037 291.051 102.699 290.724 103.278C290.407 103.847 289.963 104.291 289.394 104.608C288.825 104.925 288.181 105.084 287.462 105.084C286.93 105.084 286.44 104.981 285.992 104.776C285.553 104.571 285.18 104.272 284.872 103.88V107.716H283.528V97.58H284.816V98.756C285.115 98.3453 285.493 98.0373 285.95 97.832C286.407 97.6173 286.911 97.51 287.462 97.51ZM287.35 103.908C287.826 103.908 288.251 103.801 288.624 103.586C289.007 103.362 289.305 103.054 289.52 102.662C289.744 102.261 289.856 101.803 289.856 101.29C289.856 100.777 289.744 100.324 289.52 99.932C289.305 99.5307 289.007 99.2227 288.624 99.008C288.251 98.7933 287.826 98.686 287.35 98.686C286.883 98.686 286.459 98.798 286.076 99.022C285.703 99.2367 285.404 99.54 285.18 99.932C284.965 100.324 284.858 100.777 284.858 101.29C284.858 101.803 284.965 102.261 285.18 102.662C285.395 103.054 285.693 103.362 286.076 103.586C286.459 103.801 286.883 103.908 287.35 103.908ZM297.005 97.51C297.724 97.51 298.368 97.6687 298.937 97.986C299.506 98.3033 299.95 98.7467 300.267 99.316C300.594 99.8853 300.757 100.543 300.757 101.29C300.757 102.037 300.594 102.699 300.267 103.278C299.95 103.847 299.506 104.291 298.937 104.608C298.368 104.925 297.724 105.084 297.005 105.084C296.473 105.084 295.983 104.981 295.535 104.776C295.096 104.571 294.723 104.272 294.415 103.88V107.716H293.071V97.58H294.359V98.756C294.658 98.3453 295.036 98.0373 295.493 97.832C295.95 97.6173 296.454 97.51 297.005 97.51ZM296.893 103.908C297.369 103.908 297.794 103.801 298.167 103.586C298.55 103.362 298.848 103.054 299.063 102.662C299.287 102.261 299.399 101.803 299.399 101.29C299.399 100.777 299.287 100.324 299.063 99.932C298.848 99.5307 298.55 99.2227 298.167 99.008C297.794 98.7933 297.369 98.686 296.893 98.686C296.426 98.686 296.002 98.798 295.619 99.022C295.246 99.2367 294.947 99.54 294.723 99.932C294.508 100.324 294.401 100.777 294.401 101.29C294.401 101.803 294.508 102.261 294.723 102.662C294.938 103.054 295.236 103.362 295.619 103.586C296.002 103.801 296.426 103.908 296.893 103.908ZM303.902 98.826C304.135 98.3967 304.481 98.07 304.938 97.846C305.395 97.622 305.951 97.51 306.604 97.51V98.812C306.529 98.8027 306.427 98.798 306.296 98.798C305.568 98.798 304.994 99.0173 304.574 99.456C304.163 99.8853 303.958 100.501 303.958 101.304V105H302.614V97.58H303.902V98.826ZM311.37 105.084C310.633 105.084 309.97 104.921 309.382 104.594C308.794 104.267 308.332 103.819 307.996 103.25C307.669 102.671 307.506 102.018 307.506 101.29C307.506 100.562 307.669 99.9133 307.996 99.344C308.332 98.7653 308.794 98.3173 309.382 98C309.97 97.6733 310.633 97.51 311.37 97.51C312.107 97.51 312.765 97.6733 313.344 98C313.932 98.3173 314.389 98.7653 314.716 99.344C315.052 99.9133 315.22 100.562 315.22 101.29C315.22 102.018 315.052 102.671 314.716 103.25C314.389 103.819 313.932 104.267 313.344 104.594C312.765 104.921 312.107 105.084 311.37 105.084ZM311.37 103.908C311.846 103.908 312.271 103.801 312.644 103.586C313.027 103.362 313.325 103.054 313.54 102.662C313.755 102.261 313.862 101.803 313.862 101.29C313.862 100.777 313.755 100.324 313.54 99.932C313.325 99.5307 313.027 99.2227 312.644 99.008C312.271 98.7933 311.846 98.686 311.37 98.686C310.894 98.686 310.465 98.7933 310.082 99.008C309.709 99.2227 309.41 99.5307 309.186 99.932C308.971 100.324 308.864 100.777 308.864 101.29C308.864 101.803 308.971 102.261 309.186 102.662C309.41 103.054 309.709 103.362 310.082 103.586C310.465 103.801 310.894 103.908 311.37 103.908ZM323.44 97.58L320.192 105H318.82L315.572 97.58H316.972L319.52 103.53L322.124 97.58H323.44ZM331.195 101.332C331.195 101.435 331.186 101.57 331.167 101.738H325.147C325.231 102.391 325.516 102.919 326.001 103.32C326.496 103.712 327.107 103.908 327.835 103.908C328.722 103.908 329.436 103.609 329.977 103.012L330.719 103.88C330.383 104.272 329.963 104.571 329.459 104.776C328.964 104.981 328.409 105.084 327.793 105.084C327.009 105.084 326.314 104.925 325.707 104.608C325.1 104.281 324.629 103.829 324.293 103.25C323.966 102.671 323.803 102.018 323.803 101.29C323.803 100.571 323.962 99.9227 324.279 99.344C324.606 98.7653 325.049 98.3173 325.609 98C326.178 97.6733 326.818 97.51 327.527 97.51C328.236 97.51 328.866 97.6733 329.417 98C329.977 98.3173 330.411 98.7653 330.719 99.344C331.036 99.9227 331.195 100.585 331.195 101.332ZM327.527 98.644C326.883 98.644 326.342 98.84 325.903 99.232C325.474 99.624 325.222 100.137 325.147 100.772H329.907C329.832 100.147 329.576 99.638 329.137 99.246C328.708 98.8447 328.171 98.644 327.527 98.644ZM340.061 94.612V105H338.773V103.824C338.474 104.235 338.096 104.547 337.639 104.762C337.182 104.977 336.678 105.084 336.127 105.084C335.408 105.084 334.764 104.925 334.195 104.608C333.626 104.291 333.178 103.847 332.851 103.278C332.534 102.699 332.375 102.037 332.375 101.29C332.375 100.543 332.534 99.8853 332.851 99.316C333.178 98.7467 333.626 98.3033 334.195 97.986C334.764 97.6687 335.408 97.51 336.127 97.51C336.659 97.51 337.149 97.6127 337.597 97.818C338.045 98.014 338.418 98.308 338.717 98.7V94.612H340.061ZM336.239 103.908C336.706 103.908 337.13 103.801 337.513 103.586C337.896 103.362 338.194 103.054 338.409 102.662C338.624 102.261 338.731 101.803 338.731 101.29C338.731 100.777 338.624 100.324 338.409 99.932C338.194 99.5307 337.896 99.2227 337.513 99.008C337.13 98.7933 336.706 98.686 336.239 98.686C335.763 98.686 335.334 98.7933 334.951 99.008C334.578 99.2227 334.279 99.5307 334.055 99.932C333.84 100.324 333.733 100.777 333.733 101.29C333.733 101.803 333.84 102.261 334.055 102.662C334.279 103.054 334.578 103.362 334.951 103.586C335.334 103.801 335.763 103.908 336.239 103.908Z" fill="#5DAFFD"/>
<g clip-path="url(#clip0)">
<path d="M28.0946 32H20.7723V30.1126H27.1509V1.8872H14.4059V9.44832C14.4059 9.57675 14.3797 9.70383 14.3288 9.82177C14.2779 9.9397 14.2035 10.046 14.1102 10.1342C14.0168 10.2224 13.9064 10.2906 13.7857 10.3346C13.6651 10.3786 13.5367 10.3976 13.4085 10.3902C13.3906 10.3913 13.3727 10.3918 13.3547 10.3918H4.85009V30.1126H11.2167V32H3.90657C3.65629 32 3.41626 31.9006 3.23929 31.7236C3.06231 31.5466 2.96289 31.3066 2.96289 31.0563V9.03008C2.96289 8.79856 3.04641 8.58672 3.18497 8.4224C3.25092 8.31936 3.32867 8.22437 3.41665 8.13936L11.3659 0.43472C11.4512 0.301383 11.5687 0.191665 11.7075 0.115689C11.8463 0.0397135 12.0021 -7.31155e-05 12.1603 1.00868e-07H28.0946C28.3448 4.25308e-05 28.5848 0.0994844 28.7618 0.276454C28.9387 0.453424 29.0381 0.693428 29.0381 0.94368V31.0563C29.0381 31.3066 28.9387 31.5466 28.7618 31.7235C28.5848 31.9005 28.3448 32 28.0946 32ZM12.5186 1.9456L5.75153 8.50464H12.5189V1.9456H12.5186ZM7.79217 21.5243L7.78833 19.2442L24.997 19.2427L25.0008 21.5229L7.79217 21.5243ZM7.78833 12.7701L24.997 12.7688L25.0008 15.0488L7.79217 15.0504L7.78833 12.7701ZM7.79217 18.2874L7.78833 16.0074L24.997 16.0058L25.0008 18.2861L7.79217 18.2874ZM16.1023 22.8443L19.0575 25.8005H17.1883L17.1891 29.7093L14.9091 29.7104L14.9082 25.8005H13.1466L16.1021 22.8443H16.1023Z" fill="#5DAFFD"/>
</g>
<g clip-path="url(#clip1)">
<path d="M152.003 2C155.25 2 157.912 4.64062 157.941 7.8875C157.95 8.925 157.688 9.95 157.181 10.8469C156.691 11.7188 155.981 12.4594 155.131 12.9875C154.428 13.425 154.006 14.1813 154.009 15.0063L154.013 19.675C154.013 20.6156 154.569 21.4656 155.428 21.8469L163.928 25.5969C163.975 25.6156 164.003 25.6625 164.003 25.7125V26.8031C164.003 26.8719 163.947 26.9281 163.878 26.9281H140.128C140.059 26.9281 140.003 26.8719 140.003 26.8031V25.7125C140.003 25.6625 140.031 25.6187 140.078 25.5969L148.6 21.8344C149.463 21.4531 150.019 20.6 150.016 19.6594L150.009 15.0094C150.009 14.1844 149.587 13.4281 148.884 12.9937C148.037 12.4688 147.331 11.7375 146.841 10.8719C146.337 9.98125 146.069 8.96875 146.069 7.9375C146.069 6.35313 146.684 4.8625 147.803 3.74375C148.922 2.62188 150.412 2.00312 151.997 2H152.003ZM152.003 0H151.988C147.613 0.00625 144.066 3.55937 144.066 7.9375C144.066 10.7906 145.572 13.2906 147.828 14.6906C147.938 14.7594 148.006 14.8781 148.006 15.0094L148.012 19.6594C148.012 19.8094 147.925 19.9437 147.788 20.0031L138.938 23.9125C138 24.3344 138 24.3344 138 24.85V28.0531C138 28.5688 138.422 28.9906 138.938 28.9906H165.062C165.578 28.9906 166 28.5688 166 28.0531V24.8531C166 24.3375 166 24.3375 165.062 23.9156L156.234 20.0187C156.1 19.9594 156.009 19.825 156.009 19.675L156.006 15.0063C156.006 14.875 156.075 14.7563 156.184 14.6875C158.456 13.275 159.962 10.75 159.938 7.875C159.903 3.525 156.347 0 152.003 0V0Z" fill="#5DAFFD"/>
<path d="M162.062 31.9998H141.938C140.869 31.9998 140 31.1311 140 30.0623V27.9248H142V29.5311C142 29.7904 142.209 29.9998 142.469 29.9998H161.531C161.791 29.9998 162 29.7904 162 29.5311V27.9248H164V30.0623C164 31.1311 163.131 31.9998 162.062 31.9998Z" fill="#5DAFFD"/>
</g>
<path d="M272.004 15.2641C272.004 10.6367 272 8.89989 272 4.27244C272 0.261291 274.176 0 276.268 0H293.338C296.626 0 297.643 1.14509 297.643 4.36727V6.55092C297.643 8.27291 295.502 8.07558 295.502 6.55092V4.36727C295.502 2.7498 294.988 2.18365 293.338 2.18365H276.268C274.501 2.18365 274.134 2.42886 274.134 4.36727V26.2037C274.134 27.4006 274.774 28.3873 276.268 28.3873C278.856 28.3873 277.947 28.3884 280.535 28.3873C281.84 28.3873 281.935 30.571 280.535 30.571C279.135 30.571 278.074 30.5884 275.463 30.5777C273.923 30.5713 272.648 29.6379 272.194 28.1932C272.067 27.7891 272.012 27.3423 272.012 26.9148C272 22.3034 272.004 19.8756 272.004 15.2641Z" fill="#5DAFFD"/>
<path d="M293.317 32.7531C287.432 32.752 282.669 27.8697 282.669 21.8381C282.669 15.8065 287.455 10.9178 293.35 10.9263C299.245 10.9348 304.006 15.8288 304 21.8712C303.994 27.889 299.218 32.7542 293.317 32.7531ZM293.346 13.1121C288.668 13.1014 284.823 17.0188 284.813 21.8104C284.802 26.6148 288.612 30.5438 293.294 30.5577C297.995 30.5706 301.85 26.6756 301.86 21.8989C301.873 17.0529 298.066 13.1238 293.346 13.1121ZM291.204 6.53596C292.904 6.53702 292.671 8.74877 291.204 8.74877H278.401C276.801 8.74877 276.867 6.53596 278.401 6.53596C282.602 6.53489 289.57 6.53489 291.204 6.53596ZM280.535 13.0868C282.235 13.0879 282.002 15.2997 280.535 15.2997H278.401C276.801 15.2997 276.867 13.0868 278.401 13.0868C282.602 13.0857 278.901 13.0857 280.535 13.0868Z" fill="#5DAFFD"/>
<path d="M298.565 17.769C298.082 17.2749 297.3 17.2749 296.817 17.769L291.483 23.2277L289.853 21.56C289.37 21.066 288.588 21.066 288.105 21.56C287.622 22.0539 287.622 22.8549 288.105 23.3489L290.609 25.911C290.85 26.158 291.167 26.2815 291.483 26.2815C291.799 26.2815 292.116 26.158 292.357 25.911C292.39 25.8773 292.421 25.8417 292.45 25.8045C292.486 25.7749 292.521 25.7433 292.554 25.7098L298.565 19.5578C299.048 19.0638 299.048 18.2629 298.565 17.769Z" fill="#5DAFFD"/>
<path d="M411.258 26.0761C410.371 26.0761 409.655 26.8276 409.655 27.7589V30.3172C409.655 31.2452 410.375 32 411.258 32H413.351V29.6772H411.258C411.592 29.6772 411.862 29.9603 411.862 30.3172V27.7589C411.862 28.112 411.589 28.3989 411.258 28.3989H413.351V26.0761H411.258ZM436.742 32C437.629 32 438.345 31.2486 438.345 30.3172V27.7589C438.345 26.8309 437.625 26.0761 436.742 26.0761H434.649L435.737 27.0455C434.693 20.4894 430.383 15.6226 424 15.6226C417.617 15.6226 413.308 20.4888 412.263 27.0455L414.439 27.4301C415.307 21.9879 418.699 17.9459 424 17.9459C429.301 17.9459 432.694 21.9879 433.561 27.4301L433.715 28.3994H436.742C436.408 28.3994 436.138 28.1159 436.138 27.7589V30.3172C436.138 29.9641 436.412 29.6772 436.742 29.6772H434.649V32H436.742ZM411.258 0C410.371 0 409.655 0.751448 409.655 1.68276V4.2411C409.655 5.1691 410.375 5.92386 411.258 5.92386H413.351L412.263 4.95448C413.308 11.5106 417.617 16.3774 424 16.3774C430.384 16.3774 434.693 11.5112 435.737 4.95448L434.648 5.92386H436.742C437.628 5.92386 438.344 5.17241 438.344 4.2411V1.68276C438.345 0.754759 437.625 0 436.742 0H434.649V2.32276H436.742C436.408 2.32276 436.138 2.04028 436.138 1.68276V4.2411C436.138 3.888 436.412 3.6011 436.742 3.6011H433.716L433.561 4.56993C432.694 10.0121 429.302 14.0541 424.001 14.0541C418.7 14.0541 415.307 10.0121 414.44 4.56993L414.285 3.60055H411.258C411.592 3.60055 411.862 3.88414 411.862 4.2411V1.68276C411.862 2.03586 411.589 2.32276 411.258 2.32276H413.351V0H411.258ZM434.648 2.32276V0H413.352V2.32276H434.648ZM413.352 3.6011V5.92386H434.648V3.6011H413.352ZM434.648 28.3994V26.0767H413.352V28.3994H434.648ZM413.352 29.6767V32H434.648V29.6772H413.352V29.6767Z" fill="#5DAFFD"/>
<defs>
<clipPath id="clip0">
<rect width="32" height="32" fill="white"/>
</clipPath>
<clipPath id="clip1">
<rect width="32" height="32" fill="white" transform="translate(136)"/>
</clipPath>
</defs>
</svg>
